<?xml version="1.0" encoding="UTF-8"?>
<!DOCTYPE svg
  PUBLIC "-//W3C//DTD SVG 1.1//EN" "http://www.w3.org/Graphics/SVG/1.1/DTD/svg11.dtd">
<svg xmlns="http://www.w3.org/2000/svg" xmlns:xlink="http://www.w3.org/1999/xlink" x="0" y="0"
    width="297mm" height="210mm" viewBox="0 0 297 210" preserveAspectRatio="xMinYMin meet"
    version="1.1">
    <title>Sewing Pattern and Stations</title>
    <text dx="148.5" dy="10" text-anchor="middle" font-family="serif" font-size="10"
        font-weight="bold">Sewing Pattern and Stations</text>
    <desc>Sewing Pattern and Stations: registration and reference points for master and paramentric
        elements</desc>
    <defs>
        <pattern id="fillDottedPattern" patternUnits="userSpaceOnUse" x="0" y="0" width="1"
            height="1" viewBox="0 0 6 6" preserveAspectRatio="xMidYMid meet">
            <desc>Fill Dotted Pattern</desc>
            <circle r="2" stroke="#000000" stroke-width="2"/>
        </pattern>
        <marker id="arrowSymbol" viewBox="0 0 10 10" refX="0" refY="5" markerUnits="strokeWidth"
            markerWidth="4" markerHeight="3" orient="auto">
            <path d="M 0,0 L 10,5 L 0,10 z"/>
        </marker>
        <g id="sewingCoreRound" stroke="#000000" stroke-width="1">
            <circle r="5" cx="6" cy="6" fill="url(#fillDottedPattern)"/>
        </g>
        <!--        <g id="sewingCoreSquare" stroke="#000000" stroke-width="1" fill="none">
            <rect width="5" height="5"/>
        </g>
        <g id="sewingCoreTape" stroke="#000000" stroke-width="1" fill="none">
            <rect width="10" height="2.5"/>
        </g>-->
        <g id="loop" stroke="#000000" stroke-width="1" fill="none" stroke-linejoin="miter"
            marker-end="url(#arrowSymbol)">
            <path d="M 1,23 Q 7,22 10,20 Q 17,16 18,9"/>
            <path d="M 18,9 A 8,8 0 0,0 2,9"/>
            <path d="M 2,9 Q 3,16 10,20 Q 13,22 19,23"/>
        </g>
        <g id="sewingSupport-Loop">
            <svg x="0" y="0">
                <svg x="4" y="4">
                    <use xlink:href="#sewingCoreRound"/>
                </svg>
                <svg x="0" y="1">
                    <use xlink:href="#loop"/>
                </svg>
            </svg>
        </g>
    </defs>

    <use xlink:href="#sewingCoreRound" x="45" y="30"/>
    <circle r="1" cx="51" cy="36" fill="blue"/>
    <text font-family="serif" font-style="normal" font-variant="normal" font-weight="lighter"
        font-size="6" x="51" y="28" text-anchor="middle">sewingCoreRound</text>
    <text font-family="serif" font-style="normal" font-variant="normal" font-weight="bold"
        font-size="6" x="40" y="43" fill="blue">P</text>

    <use xlink:href="#loop" x="41" y="58"/>
    <circle r="1" cx="42" cy="81" fill="blue"/>
    <circle r="1" cx="60" cy="81" fill="blue"/>
    <text font-family="serif" font-style="normal" font-variant="normal" font-weight="lighter"
        font-size="6" dx="51" dy="56" text-anchor="middle">loop</text>
    <text font-family="serif" font-style="normal" font-variant="normal" font-weight="bold"
        font-size="6" x="32" y="84" fill="blue">L1</text>
    <text font-family="serif" font-style="normal" font-variant="normal" font-weight="bold"
        font-size="6" x="65" y="84" fill="blue">L2</text>

    <svg x="5">
        <use xlink:href="#sewingSupport-Loop" x="100" y="43"/>
        <circle r="1" cx="102" cy="67" fill="blue"/>
        <circle r="1" cx="120" cy="67" fill="blue"/>
        <text font-family="serif" font-style="normal" font-variant="normal" font-weight="lighter"
            font-size="6" dx="111" dy="41" text-anchor="middle">sewingSupport-Loop</text>
        <text font-family="serif" font-style="normal" font-variant="normal" font-weight="bold"
            font-size="6" x="92" y="70" fill="blue">L1</text>
        <text font-family="serif" font-style="normal" font-variant="normal" font-weight="bold"
            font-size="6" x="124" y="70" fill="blue">L2</text>
    </svg>

    <text font-family="serif" font-weight="100" font-size="60" x="68" y="72">}</text>

    <svg x="140" y="0">
        <g stroke="#000000" stroke-width="1" fill="none">
            <path d="M 20,60 L 20,40 42,40"/>
            <path d="M 42,40 L 68,40"/>
            <path d="M 42,40 L 42,45"/>
            <path d="M 68,40 L 88,40" stroke-dasharray="1"/>
            <path d="M 88,40 L 115,40 115,60"/>
        </g>
        <text font-family="serif" font-style="normal" font-variant="normal" font-weight="bold"
            font-size="6" x="14" y="38" fill="blue">G</text>
        <circle r="1" cx="20" cy="40" fill="blue"/>
        <text font-family="serif" font-style="normal" font-variant="normal" font-weight="bold"
            font-size="6" x="11" y="65" fill="blue">G2</text>
        <circle r="1" cx="20" cy="60" fill="blue"/>
        <text font-family="serif" font-style="normal" font-variant="normal" font-weight="bold"
            font-size="6" x="117" y="38" fill="blue">G</text>
        <circle r="1" cx="115" cy="40" fill="blue"/>
        <text font-family="serif" font-style="normal" font-variant="normal" font-weight="bold"
            font-size="6" x="117" y="65" fill="blue">G2</text>
        <circle r="1" cx="115" cy="60" fill="blue"/>
        <text font-family="serif" font-style="normal" font-variant="normal" font-weight="bold"
            font-size="6" x="35" y="51" fill="blue">M</text>
        <circle r="1" cx="42" cy="45" fill="blue"/>
    </svg>

    <circle r="1" cx="29" cy="92" fill="blue"/>
    <text font-family="serif" font-style="normal" font-variant="normal" font-weight="bold"
        font-size="6" x="24" y="90" fill="blue">O</text>


    <svg x="21">
        <text font-family="serif" font-style="normal" font-variant="normal" font-weight="lighter"
            font-size="6"><tspan y="185" x="12">Examples:</tspan>
            <tspan dy="6" x="12"><tspan fill="red" font-weight="bold">(a)</tspan> Sewing path with
                sewing supports and thread.</tspan>
            <tspan dy="6" x="12"><tspan fill="red" font-weight="bold">(b)</tspan> Sewing stations
                measurements.</tspan>
        </text>

        <text x="222" y="138" font-size="8" font-weight="bold" fill="red" font-family="serif"
            >(a)</text>
        <text x="222" y="168" font-size="8" font-weight="bold" fill="red" font-family="serif"
            >(b)</text>

        <rect width="240" height="88" stroke="#000000" stroke-width="0.5" fill="none" x="8" y="92"
            stroke-dasharray="0.5"/>

        <svg x="0" y="80">
            <g stroke="#000000" stroke-width="1" fill="none">
                <path d="M 20,60 L 20,40 42,40"/>
                <path d="M 42,40 L 68,40"/>
                <path d="M 68,40 L 120,40"/>
                <path d="M 120,40 L 179,40"/>
                <path d="M 179,40 L 205,40"/>
                <path d="M 205,40 L 236,40 236,60"/>
            </g>

            <svg x="58" y="19">
                <use xlink:href="#sewingSupport-Loop"/>
            </svg>
            <svg x="110" y="19">
                <use xlink:href="#sewingSupport-Loop"/>
            </svg>
            <svg x="169" y="19">
                <use xlink:href="#sewingSupport-Loop"/>
            </svg>

            <path d="M 77,43 Q 96,44 111,43" stroke="#000000" stroke-width="1" fill="none"
                stroke-linecap="square" marker-end="url(#arrowSymbol)"/>
            <path d="M 129,43 Q 149.5,44 170,43" stroke="#000000" stroke-width="1" fill="none"
                stroke-linecap="square" marker-end="url(#arrowSymbol)"/>
            <path d="M 33,37 Q 39,38 42,40 Q 45,42 51,43 Q 55,43.5  59,43" stroke="#000000"
                stroke-width="1" fill="none" marker-start="url(#arrowSymbol)"
                marker-end="url(#arrowSymbol)"/>
            <path d="M 188,43 Q 190,43.5 196,43 Q 202,42 205,40 Q 208,38 214,37" stroke="#000000"
                stroke-width="1" fill="none" stroke-linecap="square" marker-end="url(#arrowSymbol)"/>

            <svg x="0" y="30">
                <g stroke="#000000" stroke-width="1" fill="none">
                    <path d="M 20,60 L 20,40 42,40 42,45"/>
                    <path d="M 42,40 L 68,40 68,45"/>
                    <path d="M 68,40 L 120,40 120,45"/>
                    <path d="M 120,40 L 179,40 179,45"/>
                    <path d="M 179,40 L 205,40 205,45"/>
                    <path d="M 205,40 L 236,40 236,60 236,45"/>
                </g>
                <text dx="38" dy="55" font-family="courier" font-size="8" font-weight="bold"
                    >22</text>
                <text dx="64" dy="55" font-family="courier" font-size="8" font-weight="bold"
                    >48</text>
                <text dx="113" dy="55" font-family="courier" font-size="8" font-weight="bold"
                    >100</text>
                <text dx="172" dy="55" font-family="courier" font-size="8" font-weight="bold"
                    >159</text>
                <text dx="198" dy="55" font-family="courier" font-size="8" font-weight="bold"
                    >185</text>
            </svg>
        </svg>
    </svg>

</svg>
