<?xml version="1.0" encoding="UTF-8"?>
<!DOCTYPE svg
  PUBLIC "-//W3C//DTD SVG 1.1//EN" "http://www.w3.org/Graphics/SVG/1.1/DTD/svg11.dtd">
<svg xmlns="http://www.w3.org/2000/svg" xmlns:xlink="http://www.w3.org/1999/xlink" x="0" y="0"
    width="297mm" height="210mm" viewBox="0 0 297 210" preserveAspectRatio="xMinYMin meet"
    version="1.1">
    <desc>Sewing pattern SVG Master</desc>
    <defs>
        <filter id="f1">
            <feGaussianBlur in="SourceGraphic" stdDeviation="0.5 0.1"/>
        </filter>
        <filter id="f2">
            <feGaussianBlur in="SourceGraphic" stdDeviation="0.5"/>
        </filter>
        <pattern id="fillDottedPattern" patternUnits="userSpaceOnUse" x="0" y="0" width="1"
            height="1" viewBox="0 0 6 6" preserveAspectRatio="xMidYMid meet">
            <desc>Fill Dotted Pattern</desc>
            <circle r="0.5" stroke="#000000" stroke-width="0.5"/>
        </pattern>
        <marker id="arrowSymbol" viewBox="0 0 10 10" refX="0" refY="4" markerUnits="strokeWidth"
            markerWidth="4" markerHeight="3" orient="auto">
            <path d="M 0,0 L 8,4 L 0,8 z"/>
        </marker>
        <g id="sewingSupportRound" class="sewingSupport">
            <circle r="2.1" cx="0" cy="0" fill="url(#fillDottedPattern)"/>
        </g>
        <g id="sewingSupportRound_small" class="sewingSupport">
            <circle r="1" cx="0" cy="0" fill="url(#fillDottedPattern)"/>
        </g>
        <g id="sewingSupportFlat" class="sewingSupport">
            <rect width="12" height="2.5" x="0" y="0" rx="0.5" ry="0.5"/>
        </g>
        <g id="loop" stroke-linejoin="miter">
                <path d="M 1,14 Q 7,13 10,11" class="innerThread"/>
                <g marker-end="url(#arrowSymbol)" class="thread">
                    <path d="M10,11 Q 14,8 14,6"/>
                    <path d="M 14,6 A 4,4 0 0,0 6,6"/>
                    <path d="M 6,6 Q 6,8 10,11"/>
                </g>
                <path d="M10,11 Q 13,13 19,14" class="innerThread"/>
        </g>
        <g id="sewingArch_raised"  stroke-linejoin="miter" stroke-linecap="square" marker-end="url(#arrowSymbol)">
            <path d="M1,14 Q5.5,14 6,11" class="innerThread"/>
            <g class="thread">
                <path d="M6,11 L6,6"/>
                <path d="M 6,6 A 4,4 0 0,1 14,6"/>
                <path d="M14,6 L14,11"/>
            </g>
            <path d="M14,11 Q14.5,14 19,14" class="innerThread"/>
        </g>
        <g id="sewingArch_recessed" stroke-linejoin="miter" stroke-linecap="square">
            <path d="M1,14 Q1.25,14 7.5,11" class="innerThread"/>
            <g marker-end="url(#arrowSymbol)" class="thread">
                <path d="M7.5,11 Q10,9 12.5,11"/>
            </g>
            <path d="M12.5,11 Q17.75,14 19,14" class="innerThread"/>
        </g>
        <g id="loop_flat" stroke-linejoin="bevel">
            <path d="M 1,14 Q 7,13 10,11" class="innerThread"/>
            <g marker-end="url(#arrowSymbol)" class="thread">
                <path d="M10,11 Q 12,10 16,9.5 A 18,6 0 0,0 17.5,7"/>
                <path d="M 17.5,7 A 18,6 0 0,0 16,5 Q 13,4.5 10,4.5"/>
                <path d="M 10,4.5 Q 7,4.5 4,5 A 18,6 0 0,0 2.5,7"/>
                <path d="M 2.5,7 A 18,6 0 0,0 4,9.5 Q 8,10 10,11"/>
            </g>
            <path d="M10,11 Q 13,13 19,14" class="innerThread"/>
        </g>
        <g id="sewingArch_flat" stroke-linejoin="bevel" marker-end="url(#arrowSymbol)">
            <path d="M1,14 Q1.5,14 2,11" class="innerThread"/>
            <g class="thread">
                <path d="M2,11 Q2,9 2.5,7"/>
                <path d="M2.5,7 A18,6 0 0,1 4,5 Q7,4.5 10,4.5"/>
                <path d="M10,4.5 Q13,4.5 16,5 A18,6 0 0,1 17.5,7"/>
                <path d="M17.5,7 Q18,9 18,11"/>
            </g>
            <path d="M18,11 Q18.5,14 19,14" class="innerThread"/>
        </g>
        <g id="doubleLoop" stroke-linejoin="miter">
            <path d="M 1,14 Q 7,13 10,11" class="innerThread"/>
            <g class="thread">
                <path d="M10,11 Q10.5,8 10.5,6 A4,4 0 0,1 14.5,2.5" marker-end="url(#arrowSymbol)"/>
                <path d="M14,2.5 A4,4 0 0,1 18,6" marker-end="url(#arrowSymbol)"/>
                <path d="M18,6 A4,4 0 0,1 14,9.5" marker-end="url(#arrowSymbol)"/>
                <path d="M14,9.5 L6,9.5" marker-end="url(#arrowSymbol)"/>
                <path d="M6,9.5 A4,4 0 0,1 2,6" marker-end="url(#arrowSymbol)"/>
                <path d="M2,6 A4,4 0 0,1 6,2.5" marker-end="url(#arrowSymbol)"/>
                <path d="M6,2.5 A4,4 0 0,1 9.5,6 Q9.5,8 10,11"/>
            </g>
            <path d="M10,11 Q 13,13 19,14" class="innerThread"/>
        </g>
        <g id="sewingSupport-Loop">
            <use xmlns:xlink="http://www.w3.org/1999/xlink" xlink:href="#sewingCoreRound" x="10"
                y="6" xlink:type="simple" xlink:show="embed" xlink:actuate="onLoad"/>
            <use xmlns:xlink="http://www.w3.org/1999/xlink" xlink:href="#loop" x="0" y="0"
                xlink:type="simple" xlink:show="embed" xlink:actuate="onLoad"/>
        </g>
        <clipPath id="interlink">
            <path d="M6,10 L6,18 10,13 14,18 14,10z M10,15.5 L6,21 L6,19 14,19 14,21z"/>
        </clipPath>
        <clipPath id="interlink_first">
            <path d="M6,10 L6,18 10,13 14,18 14,10z"/>
        </clipPath>
        <linearGradient id="grad1" x1="0%" y1="0%" x2="0%" y2="100%">
            <stop stop-color = "black" offset = "0%"/>
            <stop stop-color = "grey" offset = "50%"/>
            <stop stop-color = "white" offset = "70%" stop-opacity="0"/>
        </linearGradient>
        <!-- First section should have: stroke="url(#grad1)" clip-path="url(#interlink_first)" -->
        <!-- Other section should have: stroke="#000000" clip-path="url(#interlink)" -->
        <g id="link-stitch" class="thread" stroke="#000000" stroke-width="1" fill="none" clip-path="url(#interlink)">
            <path d="M10,11 Q7.5,14 7.5,15 A2.5,2.5 0 0,0 10,18 A2.5,2.5 0 0,0 12.5,15 Q12.5,14 10,11"/>
        </g>
    </defs>

    <!-- Definitions are called here -->
    
    <use xlink:href="#link-stitch" x="20" y="20"/>
    <use xlink:href="#link-stitch" x="20" y="23"/>

</svg>
