<?xml version="1.0" encoding="UTF-8"?>
<!DOCTYPE svg
  PUBLIC "-//W3C//DTD SVG 1.1//EN" "http://www.w3.org/Graphics/SVG/1.1/DTD/svg11.dtd">
<svg xmlns="http://www.w3.org/2000/svg" xmlns:xlink="http://www.w3.org/1999/xlink" x="0" y="0"
    width="297mm" height="210mm" viewBox="0 0 297 210" preserveAspectRatio="xMinYMin meet"
    version="1.1">
    <title>Sewing Pattern and Stations</title>
    <text dx="148.5" dy="10" text-anchor="middle" font-family="serif" font-size="10"
        font-weight="bold">Sewing Pattern and Stations</text>
    <desc>Sewing Pattern and Stations: registration and reference points for master and paramentric
        elements</desc>
    <defs>
        <pattern xmlns:xlink="http://www.w3.org/1999/xlink" id="fillDottedPattern"
            patternUnits="userSpaceOnUse"
            x="0"
            y="0"
            width="1"
            height="1"
            viewBox="0 0 6 6"
            preserveAspectRatio="xMidYMid meet"
            xlink:type="simple"
            xlink:show="other"
            xlink:actuate="onLoad">
            <desc>Fill Dotted Pattern</desc>
            <circle r="0.5" stroke="#000000" stroke-width="0.5"/>
        </pattern>
        <marker id="arrowSymbol" viewBox="0 0 10 10" refX="0" refY="4"
            markerUnits="strokeWidth"
            markerWidth="4"
            markerHeight="3"
            orient="auto"
            preserveAspectRatio="xMidYMid meet">
            <path d="M 0,0 L 8,4 L 0,8 z"/>
        </marker>
        <g id="sewingCoreRound" stroke="#000000" stroke-width="0.5">
            <circle r="2.5" cx="0" cy="0" fill="url(#fillDottedPattern)"/>
        </g>
        <!--        <g id="sewingCoreSquare" stroke="#000000" stroke-width="1" fill="none">
            <rect width="5" height="5"/>
        </g>
        <g id="sewingCoreTape" stroke="#000000" stroke-width="1" fill="none">
            <rect width="10" height="2.5"/>
        </g>-->
        <g id="loop" stroke="#000000" stroke-width="1" fill="none" stroke-linejoin="miter"
            marker-end="url(#arrowSymbol)">
            <path d="M 1,23 Q 7,22 10,20 Q 14,17 14,15"/>
            <path d="M 14,15 A 4,4 0 0,0 6,15"/>
            <path d="M 6,15 Q 6,17 10,20 Q 13,22 19,23"/>
        </g>
        <g id="sewingSupport-Loop">
            <use xmlns:xlink="http://www.w3.org/1999/xlink" xlink:href="#sewingCoreRound" x="10"
                y="16"
                xlink:type="simple"
                xlink:show="embed"
                xlink:actuate="onLoad"/>
            <use xmlns:xlink="http://www.w3.org/1999/xlink" xlink:href="#loop" x="0" y="1"
                xlink:type="simple"
                xlink:show="embed"
                xlink:actuate="onLoad"/>
        </g>
    </defs>
    
    <svg x="-10" y="0">
        <use xlink:href="#sewingCoreRound" x="51" y="36"/>
        <circle r="1" cx="51" cy="36" fill="blue"/>
        <text font-family="serif" font-style="normal" font-variant="normal" font-weight="lighter"
            font-size="6" x="51" y="31" text-anchor="middle">sewingCoreRound</text>
        <text font-family="serif" font-style="normal" font-variant="normal" font-weight="bold"
            font-size="6" x="43" y="43" fill="blue">P</text>

        <use xlink:href="#loop" x="41" y="48"/>
        <circle r="1" cx="42" cy="71" fill="blue"/>
        <circle r="1" cx="60" cy="71" fill="blue"/>
        <text font-family="serif" font-style="normal" font-variant="normal" font-weight="lighter"
            font-size="6" dx="51" dy="56" text-anchor="middle">loop</text>
        <text font-family="serif" font-style="normal" font-variant="normal" font-weight="bold"
            font-size="6" x="32" y="74" fill="blue">T1</text>
        <text font-family="serif" font-style="normal" font-variant="normal" font-weight="bold"
            font-size="6" x="65" y="74" fill="blue">T2</text>

        <svg x="5">
            <use xlink:href="#sewingSupport-Loop" x="100" y="35"/>
            <circle r="1" cx="102" cy="59" fill="blue"/>
            <circle r="1" cx="120" cy="59" fill="blue"/>
            <text font-family="serif" font-style="normal" font-variant="normal"
                font-weight="lighter" font-size="6" dx="111" dy="44" text-anchor="middle"
                >sewingSupport-Loop</text>
            <text font-family="serif" font-style="normal" font-variant="normal" font-weight="bold"
                font-size="6" x="92" y="62" fill="blue">T1</text>
            <text font-family="serif" font-style="normal" font-variant="normal" font-weight="bold"
                font-size="6" x="124" y="62" fill="blue">T2</text>
        </svg>

        <text font-family="serif" font-weight="100" font-size="46" x="68" y="65">}</text>

        <svg x="140" y="-15">
            <g stroke="#000000" stroke-width="1" fill="none">
                <path d="M 20,60 L 20,40 42,40"/>
                <path d="M 42,40 L 68,40"/>
                <path d="M 42,40 L 42,45"/>
                <path d="M 68,40 L 88,40" stroke-dasharray="1"/>
                <path d="M 88,40 L 115,40 115,60"/>
            </g>
            <text font-family="serif" font-style="normal" font-variant="normal" font-weight="bold"
                font-size="6" x="14" y="38" fill="blue">G</text>
            <circle r="1" cx="20" cy="40" fill="blue"/>
            <text font-family="serif" font-style="normal" font-variant="normal" font-weight="bold"
                font-size="6" x="12" y="65" fill="blue">g2</text>
            <circle r="1" cx="20" cy="60" fill="blue"/>
            <text font-family="serif" font-style="normal" font-variant="normal" font-weight="bold"
                font-size="6" x="116" y="38" fill="blue">G</text>
            <circle r="1" cx="115" cy="40" fill="blue"/>
            <text font-family="serif" font-style="normal" font-variant="normal" font-weight="bold"
                font-size="6" x="116" y="65" fill="blue">g2</text>
            <circle r="1" cx="115" cy="60" fill="blue"/>
            <text font-family="serif" font-style="normal" font-variant="normal" font-weight="bold"
                font-size="6" x="36" y="49" fill="blue">m</text>
            <circle r="1" cx="42" cy="45" fill="blue"/>
        </svg>

        <svg x="190" y="5">
            <g stroke="#000000" stroke-width="1" fill="none">
                <path d="M 12,40 L 28,40"/>
                <path d="M 20,40 L 20,62"/>
                <path d="M 20,62 L 20,72" stroke-dasharray="1"/>
                <path d="M 20,72 L 20,80"/>
                <path d="M 12,80 L 28,80"/>
                <circle r="1" cx="20" cy="60"/>
            </g>
            <text font-family="serif" font-style="normal" font-variant="normal" font-weight="bold"
                font-size="6" x="14" y="38" fill="blue">F</text>
            <circle r="1" cx="20" cy="40" fill="blue"/>
            <text font-family="serif" font-style="normal" font-variant="normal" font-weight="bold"
                font-size="6" x="5" y="45" fill="blue">f2</text>
            <circle r="1" cx="12" cy="40" fill="blue"/>
            <text font-family="serif" font-style="normal" font-variant="normal" font-weight="bold"
                font-size="6" x="30" y="45" fill="blue">f2</text>
            <circle r="1" cx="28" cy="40" fill="blue"/>
            <text font-family="serif" font-style="normal" font-variant="normal" font-weight="bold"
                font-size="6" x="14" y="85" fill="blue">F</text>
            <circle r="1" cx="20" cy="80" fill="blue"/>
        </svg>
        <circle r="1" cx="29" cy="97" fill="blue"/>
        <text font-family="serif" font-style="normal" font-variant="normal" font-weight="bold"
            font-size="6" x="24" y="95" fill="blue">O</text>


        <svg x="21">
            <text font-family="serif" font-style="normal" font-variant="normal"
                font-weight="lighter" font-size="6"><tspan y="185" x="12">Examples:</tspan>
                <tspan dy="6" x="12"><tspan fill="red" font-weight="bold">(a)</tspan> Sewing path
                    with sewing supports and thread.</tspan>
                <tspan dy="6" x="12"><tspan fill="red" font-weight="bold">(b)</tspan> Sewing
                    stations measurements (horizontal diagram).</tspan>
                <tspan dy="6" x="12"><tspan fill="red" font-weight="bold">(c)</tspan> Sewing
                    stations measurements (vertical diagram, scaled down by 30%).</tspan>
            </text>

            <text x="222" y="128" font-size="8" font-weight="bold" fill="red" font-family="serif"
                >(a)</text>
            <text x="222" y="163" font-size="8" font-weight="bold" fill="red" font-family="serif"
                >(b)</text>
            <text x="256" y="163" font-size="8" font-weight="bold" fill="red" font-family="serif"
                >(c)</text>

            <path stroke="#000000" stroke-width="0.5" fill="none" stroke-dasharray="0.5"
                d="M 8,97 L 243,97 243,15 268,15 268,175 8,175z"/>

            <svg x="0" y="70">
                <g stroke="#000000" stroke-width="1" fill="none">
                    <desc>Station N.1(kettlestitch)</desc>
                    <path d="M 20,60 L 20,40 42,40"/>
                    <path stroke-linecap="square" marker-start="url(#arrowSymbol)"
                        marker-end="url(#arrowSymbol)"
                        d="M 33,37 Q 39,38 42,40 Q 45,42 51,43 Q 55,44 59,43"/>
                    <desc>Station N.2(supported)</desc>
                    <path d="M 42,40 L 68,40"/>
                    <use xmlns:xlink="http://www.w3.org/1999/xlink" xlink:href="#sewingSupport-Loop"
                        x="58"
                        y="19"/>
                    <path stroke-linecap="square" marker-end="url(#arrowSymbol)"
                        d="M 77,43 Q 97,44 111,43"/>
                    <desc>Station N.3(supported)</desc>
                    <path d="M 68,40 L 120,40"/>
                    <use xmlns:xlink="http://www.w3.org/1999/xlink" xlink:href="#sewingSupport-Loop"
                        x="110"
                        y="19"/>
                    <path stroke-linecap="square" marker-end="url(#arrowSymbol)"
                        d="M 129,43 Q 149,44 170,43"/>
                    <desc>Station N.4(supported)</desc>
                    <path d="M 120,40 L 179,40"/>
                    <use xmlns:xlink="http://www.w3.org/1999/xlink" xlink:href="#sewingSupport-Loop"
                        x="169"
                        y="19"/>
                    <desc>Station N.5(kettlestitch)</desc>
                    <path d="M 179,40 L 205,40"/>
                    <path d="M 205,40 L 236,40 236,60"/>
                    <path stroke-linecap="square" marker-start="url(#arrowSymbol)"
                        marker-end="url(#arrowSymbol)"
                        d="M 188,43 Q 192,44 196,43 Q 202,42 205,40 Q 208,38 214,37"/>
                </g>

                <svg x="0" y="35">
                    <g stroke="#000000" stroke-width="1" fill="none">
                        <path d="M 20,60 L 20,40 42,40 42,45"/>
                        <path d="M 42,40 L 68,40 68,45"/>
                        <path d="M 68,40 L 120,40 120,45"/>
                        <path d="M 120,40 L 179,40 179,45"/>
                        <path d="M 179,40 L 205,40 205,45"/>
                        <path d="M 205,40 L 236,40 236,60 236,45"/>
                    </g>
                    <text dx="38" dy="55" font-family="courier" font-size="8" font-weight="bold"
                        >22</text>
                    <text dx="64" dy="55" font-family="courier" font-size="8" font-weight="bold"
                        >48</text>
                    <text dx="113" dy="55" font-family="courier" font-size="8" font-weight="bold"
                        >100</text>
                    <text dx="172" dy="55" font-family="courier" font-size="8" font-weight="bold"
                        >159</text>
                    <text dx="198" dy="55" font-family="courier" font-size="8" font-weight="bold"
                        >185</text>
                </svg>
            </svg>
        </svg>

        <svg x="260" y="5">
            <g transform="scale(0.7)">
                <path style="stroke: #000000; stroke-width: 1; fill: none;"
                    d="M 12,20 L 28,20M 20,20 L 20,42"/>
                <text
                    style="font-family: courier; font-style: normal; font-variant: normal; font-weight: bold; font-size: 8px; fill:#000000; dominant-baseline: central;"
                    dx="23" dy="42">22</text>
                <circle style="fill: #000000; stroke: #000000;" r="1" cx="20" cy="42"/>
                <path style="stroke: #000000; stroke-width: 1; fill: none;" d="M 20,42 L 20,68"/>
                <text
                    style="font-family: courier; font-style: normal; font-variant: normal; font-weight: bold; font-size: 8px; fill:#000000; dominant-baseline: central;"
                    dx="23" dy="68">48</text>
                <circle style="fill: #000000; stroke: #000000;" r="1" cx="20" cy="68"/>
                <path style="stroke: #000000; stroke-width: 1; fill: none;" d="M 20,68 L 20,120"/>
                <text
                    style="font-family: courier; font-style: normal; font-variant: normal; font-weight: bold; font-size: 8px; fill:#000000; dominant-baseline: central;"
                    dx="23" dy="120">100</text>
                <circle style="fill: #000000; stroke: #000000;" r="1" cx="20" cy="120"/>
                <path style="stroke: #000000; stroke-width: 1; fill: none;" d="M 20,120 L 20,179"/>
                <text
                    style="font-family: courier; font-style: normal; font-variant: normal; font-weight: bold; font-size: 8px; fill:#000000; dominant-baseline: central;"
                    dx="23" dy="179">159</text>
                <circle style="fill: #000000; stroke: #000000;" r="1" cx="20" cy="179"/>
                <path style="stroke: #000000; stroke-width: 1; fill: none;" d="M 20,179 L 20,205"/>
                <text
                    style="font-family: courier; font-style: normal; font-variant: normal; font-weight: bold; font-size: 8px; fill:#000000; dominant-baseline: central;"
                    dx="23" dy="205">185</text>
                <circle style="fill: #000000; stroke: #000000;" r="1" cx="20" cy="205"/>
                <path style="stroke: #000000; stroke-width: 1; fill: none;"
                    d="M 20,205 L 20,236 12,236 28,236"/>
            </g>
        </svg>
    </svg>
</svg>
