<?xml version="1.0" encoding="UTF-8"?>
<!DOCTYPE svg
  PUBLIC "-//W3C//DTD SVG 1.1//EN" "http://www.w3.org/Graphics/SVG/1.1/DTD/svg11.dtd">
<svg xmlns="http://www.w3.org/2000/svg" xmlns:xlink="http://www.w3.org/1999/xlink" x="0" y="0"
    width="297mm" height="210mm" viewBox="0 0 297 210" preserveAspectRatio="xMinYMin meet"
    version="1.1">
    <desc>Page Markers SVG Master</desc>
    <defs>
        <linearGradient id="three_stops">
            <stop offset="0%" stop-color="#FFFFFF"/>
            <stop offset="50%" stop-color="#666666"/>
        </linearGradient>   

        <g id="foldedKnotted" stroke-linejoin="bevel" stroke-linecap="round">
            <path d="M0,0 L20,0 Q22,0 22,0.6 L40,2 M40,3 L22,4.4 Q22,5 20,5 L4,5"/>
            <path id="turkKnot_element" d="M40,2 Q42,-2 45.5,-1"/>
            <use xlink:href="#turkKnot_element" transform=" translate(4.5,7.2) rotate(73, 42.5, 2.5) scale(0.8,1)"/>
            <use xlink:href="#turkKnot_element" transform=" translate(3,-0.5) rotate(175, 42.5, 2.5)"/>
            <use xlink:href="#turkKnot_element" transform=" translate(1,-7.5) rotate(266, 42.5, 2.5) scale(0.8,1)"/>
        </g>
        <g id="folded" stroke-linejoin="round" stroke-linecap="round">
            <path d="M0,0 L20,0 Q22,0 22,0.6 L42.5,1.5 A0.5,0.5 0,0 1 42.5,3.5 L22,4.4 Q22,5 20,5 L4,5"/>
        </g>
        <g id="straight" stroke-linejoin="round" stroke-linecap="round">
            <path d="M0,0 L20,0 42.5,0"/>
        </g>
        
    </defs>
    
    <!-- Definitions are called here -->
    
    <use xlink:href="#foldedKnotted" stroke="#000000" stroke-width="1" fill="none" x="50" y="50"/>
    <path d="M30,52.51 L71,52.5" stroke-width="2" stroke="url(#three_stops)" fill="none"/>
    
    <use xlink:href="#folded" stroke="#000000" stroke-width="1" fill="none" x="50" y="70"/>
    <path d="M30,72.51 L71,72.5" stroke-width="2" stroke="url(#three_stops)" fill="none"/>
    
    <use xlink:href="#straight" stroke="#000000" stroke-width="1" fill="none" x="50" y="90"/>
    <path d="M30,92.51 L71,92.5" stroke-width="2" stroke="url(#three_stops)" fill="none"/>
    
</svg>