<?xml version="1.0" encoding="utf-8"?>
<!DOCTYPE svg
  PUBLIC "-//W3C//DTD SVG 1.1//EN" "http://www.w3.org/Graphics/SVG/1.1/DTD/svg11.dtd">
<svg xmlns="http://www.w3.org/2000/svg" version="1.1" x="0" y="0" width="297mm"
     height="210mm"
     viewBox="0 0 297 210"
     preserveAspectRatio="xMinYMin meet">
   <title>Sewing pattern of book: 534.71</title>
   <defs>
        <pattern xmlns:xlink="http://www.w3.org/1999/xlink" id="fillDottedPattern"
               patternUnits="userSpaceOnUse"
               x="0"
               y="0"
               width="1"
               height="1"
               viewBox="0 0 6 6"
               preserveAspectRatio="xMidYMid meet"
               xlink:type="simple"
               xlink:show="other"
               xlink:actuate="onLoad">
            <desc>Fill Dotted Pattern</desc>
            <circle r="0.5" stroke="#000000" stroke-width="0.5"/>
        </pattern>
        <marker id="arrowSymbol" viewBox="0 0 10 10" refX="0" refY="5"
              markerUnits="strokeWidth"
              markerWidth="4"
              markerHeight="3"
              orient="auto"
              preserveAspectRatio="xMidYMid meet">
            <path d="M 0,0 L 10,5 L 0,10 z"/>
        </marker>
        <g id="sewingCoreRound" stroke="#000000" stroke-width="1">
            <circle r="5" cx="6" cy="6" fill="url(#fillDottedPattern)"/>
        </g>
      <!--        <g id="sewingCoreSquare" stroke="#000000" stroke-width="1" fill="none">
            <rect width="5" height="5"/>
        </g>
        <g id="sewingCoreTape" stroke="#000000" stroke-width="1" fill="none">
            <rect width="10" height="2.5"/>
        </g>-->
        <g id="loop" stroke="#000000" stroke-width="1" fill="none" stroke-linejoin="miter"
         marker-end="url(#arrowSymbol)">
            <path d="M 1,23 Q 7,22 10,20 Q 17,16 18,9"/>
            <path d="M 18,9 A 8,8 0 0,0 2,9"/>
            <path d="M 2,9 Q 3,16 10,20 Q 13,22 19,23"/>
        </g>
        <g id="sewingSupport-Loop">
            <svg x="0" y="0" preserveAspectRatio="xMidYMid meet" zoomAndPan="magnify"
              version="1.1"
              contentScriptType="text/ecmascript"
              contentStyleType="text/css">
                <svg x="4" y="4" preserveAspectRatio="xMidYMid meet" zoomAndPan="magnify"
                 version="1.1"
                 contentScriptType="text/ecmascript"
                 contentStyleType="text/css">
                    <use xmlns:xlink="http://www.w3.org/1999/xlink" xlink:href="#sewingCoreRound"
                    xlink:type="simple"
                    xlink:show="embed"
                    xlink:actuate="onLoad"/>
                </svg>
                <svg x="0" y="1" preserveAspectRatio="xMidYMid meet" zoomAndPan="magnify"
                 version="1.1"
                 contentScriptType="text/ecmascript"
                 contentStyleType="text/css">
                    <use xmlns:xlink="http://www.w3.org/1999/xlink" xlink:href="#loop" xlink:type="simple"
                    xlink:show="embed"
                    xlink:actuate="onLoad"/>
                </svg>
            </svg>
        </g>
    </defs>
   <svg x="0" y="0">
      <g stroke="#000000" stroke-width="1" fill="none">
         <desc>Station N.1(kettlestitch)</desc>
         <path d="M 20,60 L 20,40 42,40"/>
         <path stroke-linecap="square" marker-start="url(#arrowSymbol)"
               marker-end="url(#arrowSymbol)"
               d="M 33,37 Q 39,38 42,40 Q 45,42 51,43 Q 55,44 59,43"/>
         <desc>Station N.2(supported)</desc>
         <path d="M 42,40 L 68,40"/>
         <svg x="58" y="19">
            <use xmlns:xlink="http://www.w3.org/1999/xlink" xlink:href="#sewingSupport-Loop"/>
         </svg>
         <path stroke-linecap="square" marker-end="url(#arrowSymbol)"
               d="M 77,43 Q 97,44 111,43"/>
         <desc>Station N.3(supported)</desc>
         <path d="M 68,40 L 120,40"/>
         <svg x="110" y="19">
            <use xmlns:xlink="http://www.w3.org/1999/xlink" xlink:href="#sewingSupport-Loop"/>
         </svg>
         <path stroke-linecap="square" marker-end="url(#arrowSymbol)"
               d="M 129,43 Q 149,44 170,43"/>
         <desc>Station N.4(supported)</desc>
         <path d="M 120,40 L 179,40"/>
         <svg x="169" y="19">
            <use xmlns:xlink="http://www.w3.org/1999/xlink" xlink:href="#sewingSupport-Loop"/>
         </svg>
         <desc>Station N.5(kettlestitch)</desc>
         <path d="M 179,40 L 205,40"/>
         <path d="M 205,40 L 236,40 236,60"/>
         <path stroke-linecap="square" marker-start="url(#arrowSymbol)"
               marker-end="url(#arrowSymbol)"
               d="M 188,43 Q 192,44 196,43 Q 202,42 205,40 Q 208,38 214,37"/>
      </g>
   </svg>
</svg>