<?xml version="1.0" encoding="UTF-8"?>
<!DOCTYPE svg PUBLIC "-//W3C//DTD SVG 1.0//EN" "http://www.w3.org/TR/2001/REC-SVG-20010904/DTD/svg10.dtd">
<svg xmlns="http://www.w3.org/2000/svg" xmlns:xlink="http://www.w3.org/1999/xlink" width="100%"
    height="100%">
    <defs>
        <g id="outermostGL" fill="none" stroke="#000000" stroke-width="1">
            <desc>Outermost gathering Left</desc>
            <path d="M 140,0 L 10,0 A 10,10 0 0,0 10,20 L 140,20 z"/>
        </g>
        <g id="outermostGR" fill="none" stroke="#000000" stroke-width="1">
            <desc>Outermost gathering Right</desc>
            <path d="M 0,0 L 130,0 A 10,10 0 0,1 130,20 L 0,20 z"/>
        </g>
        <pattern id="gluedPattern" patternUnits="userSpaceOnUse" x="2" y="0" width="5" height="10"
            viewBox="0 0 10 10">
            <desc>Glue pattern</desc>
            <path d="M 0,5 L 3,0 " stroke="blue" stroke-width="0.5"/>
        </pattern>
        <g id="pastedown" fill="none" stroke="#000000" stroke-width="1">
            <desc>pastedown</desc>
            <path d="M 0,0 L 130,0"/>
            <rect width="130" height="5" fill="url(#gluedPattern)" stroke-opacity="0.0"/>
        </g>
        <g id="flyleaf" fill="none" stroke="#000000" stroke-width="1">
            <desc>single flyleaf</desc>
            <path d="M 0,0 L 130,0"/>
        </g>
        <g id="foldedFlyleaf" fill="none" stroke="#000000" stroke-width="1">
            <desc>Folded flyleaves</desc>
            <path d="M 140,0 L 10,0 A 5,5 0 0,0 10,10 L 140,10"/>
        </g>
        <g id="thread" fill="none" stroke="#000000" stroke-width="0.5">
            <path d="M 0,0 L 20,0"/>
        </g>
    </defs>

    <!-- Call the definitions above inside the groups below by <use  xlink:href="[#+ID here]", use the X and Y attributes of the nested SVG node to move the components around -->
    <svg x="50" y="50">
        <g>
            <svg x="155" y="20">
                <use xlink:href="#foldedFlyleaf"/>
            </svg>
        </g>
        <g>
            <svg x="165" y="35">
                <use xlink:href="#flyleaf"/>
            </svg>
        </g>
        <g>
            <svg x="10" y="10">
                <use xlink:href="#pastedown"/>
            </svg>
        </g>
        <g>
            <svg x="155" y="45">
                <use xlink:href="#outermostGL"/>
            </svg>
        </g>
        <g>
            <svg x="145" y="25">
                <use xlink:href="#thread"/>
            </svg>
        </g>
        <g stroke="#000000" stroke-width="1" fill="none">
            <path d="M 165,35 Q 152.5,35 152.5,22.5 Q 152.5,10 140,10"/>
        </g>
    </svg>
    <svg x="50" y="50">
        <g>
            <svg x="10" y="110">
                <use xlink:href="#outermostGR"/>
            </svg>
        </g>
        <g>
            <svg x="165" y="100">
                <use xlink:href="#pastedown"/>
            </svg>
        </g>
    </svg>

</svg>
