<?xml version="1.0" encoding="UTF-8"?>
<!DOCTYPE svg
  PUBLIC "-//W3C//DTD SVG 1.1//EN" "http://www.w3.org/Graphics/SVG/1.1/DTD/svg11.dtd">
<svg xmlns="http://www.w3.org/2000/svg" xmlns:xlink="http://www.w3.org/1999/xlink" x="0" y="0"
    width="297mm" height="210mm" viewBox="0 0 297 210" preserveAspectRatio="xMinYMin meet"
    version="1.1">
    <desc>Board Markers SVG Master</desc>
    <defs>
        <linearGradient id="fading">
            <stop offset="0%" stop-color="#FFFFFF"/>
            <stop offset="50%" stop-color="#666666"/>
            <stop offset="90%" stop-color="#000000"/>
        </linearGradient>
        <pattern id="gluedPattern" patternUnits="userSpaceOnUse" viewBox="0 0 3 5" x="0" y="0"
            width="3" height="5">
            <desc>Glue pattern</desc>
            <path d="M 0,5 L 3,0 " class="glued" stroke="#666666" stroke-width="0.5"/>
        </pattern>
        <pattern id="thicknessCutoutTile" patternUnits="userSpaceOnUse"
            patternContentUnits="userSpaceOnUse" x="0" y="-10" width="2" height="50">
            <path d="M0,0 L5,50" class="line2" fill="none" stroke="#666666" stroke-width="0.1"
                stroke-linejoin="miter"/>
        </pattern>
        <g id="endbandCore">
            <circle r="7" cx="0" cy="0" fill="url(#thicknessCutoutTile)"/>
        </g>
        <g id="crowningCore">
            <circle r="2" cx="0" cy="0" fill="url(#thicknessCutoutTile)"/>
        </g>
        <!--<g id="textblock">
            <path d="M0,25 L0,0 25,0"/>
        </g>-->
        <g id="textblock">
            <g id="edges" transform="scale(-1, 1) translate(-45)">
                <path d="M0,0 L45,0.1" stroke="url(#fading)"/>
                <path d="M0,0 L 70,0.1" stroke="url(#fading)" transform="rotate(-90, 45, 0) translate(-24.6, -0.4)"/>
            </g>
        </g>
        <g id="type1">
            <path d="M0,0 L18,0" stroke-linecap="round"/>
        </g>
        <g id="twistedSpan">
            <path d="M0,0 L10,0 Q16,0 18,-2 Q14,-4 10,0" stroke-linejoin="round"/>
        </g>
        <g id="twistedClosedLoop">
            <path d="M0,0 L10,0 Q19,0 18,-2 Q18,-3 15.7,-4 M14.3,-4.7 Q12,-6 12,-7 A1,1 0 0,1 16,-7 Q16,-4 10,0" stroke-linejoin="round"/>
        </g>
        <g id="knot">
            <path d="M0,0 L2,0" stroke-linecap="round"/>
            <ellipse rx="0.5" ry="0.8" cx="1.7" cy="0.5" transform="rotate(-22, 1.7,0.5)"/>
            <path d="M2,1 L4,1" stroke-linecap="round"/>
        </g>
        <g id="frayed">
            <path d="M1.5,3 L-0.5,9" stroke-linecap="round"/>
            <path d="M1.5,3 L1.5,9" stroke-linecap="round"/>
            <path d="M1.5,3 Q1.5,1 3.8,1" stroke-linecap="round"/>
        </g>
        <g id="frayed2">
            <path d="M4,1 Q-1.1,3 -1.5,9"/>
            <path d="M4,1 Q-1.1,3 -1.5,9" transform="rotate(10, 4,1)"/>
        </g>
    </defs>

    <!-- Definitions are called here -->

    <!-- Span1 | multipleSpan | closedLoop -->
    <use xlink:href="#endbandCore" x="50" y="50" stroke="#000000" stroke-width="0.5"/>
    <use xlink:href="#crowningCore" x="48" y="40" stroke="#000000" stroke-width="0.5"/>
    <use xlink:href="#textblock" x="46" y="61" stroke="#000000" stroke-width="1" fill="none"/>
    <use xlink:href="#type1" x="46" y="59" stroke="#000000" stroke-width="1"/>
<!--    <use xlink:href="#knot" x="42" y="58"  stroke="#000000" stroke-width="1"/>-->
    <use xlink:href="#frayed" x="42" y="58"  stroke="#000000" stroke-width="1" fill="none"/>
    
    <!-- Span2 -->
    <!--<use xlink:href="#endbandCore" x="50" y="50" stroke="#000000" stroke-width="0.5"/>
    <use xlink:href="#crowningCore" x="48" y="39" stroke="#000000" stroke-width="0.5"/>
    <use xlink:href="#textblock" x="46" y="59" stroke="#000000" stroke-width="1" fill="none"/>
    <use xlink:href="#type1" x="47" y="42" stroke="#000000" stroke-width="1"/>
<!-\-    <use xlink:href="#knot" x="43" y="41"  stroke="#000000" stroke-width="1"/>-\->
    <use xlink:href="#frayed2" x="43" y="41"  stroke="#000000" stroke-width="1" fill="none"/>-->

    <!-- twistedSpan -->
    <!--<use xlink:href="#endbandCore" x="50" y="50" stroke="#000000" stroke-width="0.5"/>
    <use xlink:href="#crowningCore" x="48" y="40" stroke="#000000" stroke-width="0.5"/>
    <use xlink:href="#textblock" x="46" y="61" stroke="#000000" stroke-width="1" fill="none"/>
    <use xlink:href="#twistedSpan" x="46" y="59" stroke="#000000" stroke-width="1" fill="none"/>
<!-\-    <use xlink:href="#knot" x="42" y="58"  stroke="#000000" stroke-width="1"/>-\->
    <use xlink:href="#frayed" x="42" y="58"  stroke="#000000" stroke-width="1" fill="none"/>-->
    
    <!-- twistedClosedLoop -->
    <!--<use xlink:href="#endbandCore" x="50" y="50" stroke="#000000" stroke-width="0.5"/>
    <use xlink:href="#crowningCore" x="48" y="40" stroke="#000000" stroke-width="0.5"/>
    <use xlink:href="#textblock" x="46" y="61" stroke="#000000" stroke-width="1" fill="none"/>
    <use xlink:href="#twistedClosedLoop" x="46" y="59" stroke="#000000" stroke-width="1" fill="none"/>
    <use xlink:href="#knot" x="42" y="58"  stroke="#000000" stroke-width="1"/>
<!-\-    <use xlink:href="#frayed" x="42" y="58"  stroke="#000000" stroke-width="1" fill="none"/>-\->-->




</svg>
