<?xml version="1.0" encoding="UTF-8"?>
<!DOCTYPE svg
  PUBLIC "-//W3C//DTD SVG 1.1//EN" "http://www.w3.org/Graphics/SVG/1.1/DTD/svg11.dtd">
<svg xmlns="http://www.w3.org/2000/svg" xmlns:xlink="http://www.w3.org/1999/xlink" x="0" y="0"
    width="297mm" height="210mm" viewBox="0 0 297 210" preserveAspectRatio="xMinYMin meet"
    version="1.1">
    <desc>Board Markers SVG Master</desc>
    <defs>
        <filter id="f1">
            <feGaussianBlur in="SourceGraphic" stdDeviation="0.5 0.1"/>
        </filter>
        <filter id="f2">
            <feGaussianBlur in="SourceGraphic" stdDeviation="0.5 0.3"/>
        </filter>
        <filter id="f3">
            <feGaussianBlur in="SourceGraphic" stdDeviation="0.5"/>
        </filter>
        <linearGradient id="fading">
            <stop offset="0%" stop-color="#FFFFFF"/>
            <stop offset="50%" stop-color="#666666"/>
            <stop offset="90%" stop-color="#000000"/>
        </linearGradient>
        <linearGradient id="fadingBothEnds">
            <stop offset="0%" stop-color="#FFFFFF"/>
            <stop offset="20%" stop-color="#666666"/>
            <stop offset="40%" stop-color="#000000"/>
            <stop offset="60%" stop-color="#000000"/>
            <stop offset="80%" stop-color="#666666"/>
            <stop offset="100%" stop-color="#FFFFFF"/>
        </linearGradient>
        <linearGradient id="fadingDown" xlink:href="#fading" x1="0%" y1="100%" x2="0%" y2="0%"/>
        <linearGradient id="fadingUp" xlink:href="#fading" x1="0%" y1="0%" x2="0%" y2="100%"/>
        <pattern id="gluedPattern" patternUnits="userSpaceOnUse" viewBox="0 0 3 5" x="0" y="0"
            width="3" height="5">
            <desc>Glue pattern</desc>
            <path d="M 0,5 L 3,0 " class="line4"/>
        </pattern>
        <pattern id="thicknessCutoutTile" patternUnits="userSpaceOnUse"
            patternContentUnits="userSpaceOnUse" x="0" y="-10" width="2" height="50">
            <path d="M0,0 L5,50" class="line3"/>
        </pattern>
        <pattern id="endbandFill" x="0" y="0" width="4" height="14" patternUnits="userSpaceOnUse">
            <path d="M0,0 Q-1,7 0,14 M2,0 Q1,7 2,14" class="line2"/>
        </pattern>
        <pattern id="endbandFill2" x="0" y="0" width="4" height="4" patternUnits="userSpaceOnUse">
            <path d="M0,0 L4,0 4,4 0,4z" class="fill2"/>
            <path d="M0,0 Q-0.5,2 0,4 M2,0 Q1.5,2 2,4" class="line2"/>
        </pattern>
        <clipPath id="knot_back_clip">
            <path d="M-1,-1 L3,-1 3,2 -1,2z"/>
        </clipPath>
        <clipPath id="span2_clip">
            <path d="M-1,-7 L-1,11 21,11 21,-7z"/>
        </clipPath>
        <g id="endbandCore">
            <circle r="7" cx="0" cy="0" fill="url(#thicknessCutoutTile)" class="line4"/>
        </g>
        <g id="endbandCore_front">
            <path d="M0,0 L80,0 80,14 0,14z" stroke="url(#fadingBothEnds)" fill="url(#endbandFill)" stroke-width="0.5"
            />
        </g>
        <g id="crowningCore">
            <circle r="2" cx="0" cy="0" fill="url(#thicknessCutoutTile)" class="line4"/>
        </g>
        <g id="crowningCore_front">
            <path d="M0,0 L80,0 80,4 0,4z" stroke="url(#fadingBothEnds)" fill="url(#endbandFill2)" stroke-width="0.5"/>
        </g>
        <g id="textblock" stroke-width="0.5">
            <g id="edges" transform="scale(-1, 1) translate(-45)">
                <path d="M0,0 L15,0.1" stroke="url(#fading)"/>
                <path d="M0,0 L 70,0.1" stroke="url(#fading)"
                    transform="rotate(-90, 45, 0) translate(-24.6, -30.4)"/>
            </g>
        </g>
        <g id="type1">
            <path d="M0,0 L18,0" stroke-linecap="round"/>
        </g>
        <g id="span_front">
            <path d="M0,0 Q-1,1.5 0.5,3 Q10,8 19.5,3 Q21,1.5 20,0"/>
        </g>
        <g id="span_above">
            <path d="M0,0 A10,10 0 0,0 20,0"/>
            <path d="M0,0 L0,-15 M20,0 L20,-15" stroke-linecap="butt" stroke-dasharray="2 2"/>
        </g>
        <g id="multipleSpan_back">
            <path d="M0,0 Q10,2.5 20,0" stroke-linecap="round"/>
        </g>
        <g id="multipleSpan_back_above" stroke-linecap="round">
            <path d="M1,-1 Q10,-5 19,-1"/>
            <path d="M0,1 Q0,0 1,-1 M20,1 Q20,0 19,-1"/>
        </g>
        <g id="closedLoop_front">
            <path d="M-0.5,0 Q-18,3 2,3.5 Q18,3 0.5,0"/>
        </g>
        <g id="closedLoop_above">
            <path d="M-0.2,-0.5 Q-1,-8 -0.5,-15 M0.2,0 Q1,-8 0.5,-15" stroke-linecap="butt"
                stroke-dasharray="2 2"/>
            <path d="M-0.5,0 Q-7.5,3 -8.5,8 A5,5 0 0,0 8.5,8 Q7.5,3 0.5,0"/>
        </g>
        <g id="twistedSpan">
            <path d="M0,0 L10,0 Q16,0 18,-2 Q14,-4 10,0" stroke-linejoin="round"/>
        </g>
        <g id="twistedSpan_front">
            <path d="M0,0.5 Q-7,-3.5 -5,-4.5 Q-1.5,-5.5 2,-1.5 Q2,0.5 0,0.5"/>
        </g>
        <g id="twistedSpan_above">
            <path d="M-0.2,-0.5 Q-1,-8 -0.5,-15 M0.2,0 Q1,-8 0.5,-15" stroke-linecap="butt"
                stroke-dasharray="2 2"/>
            <path d="M0,0 Q6,10 -3,12.5 Q-7,12 -0.5,0"/>
        </g>
        <g id="twistedClosedLoop">
            <path
                d="M0,0 L10,0 Q19,0 18,-2 Q18,-3 15.7,-4 M14.3,-4.7 Q12,-6 12,-7 A1,1 0 0,1 16,-7 Q16,-4 10,0"
                stroke-linejoin="round"/>
        </g>
        <g id="twistedClosedLoop_front">
            <path d="M0,0 Q-1,-4 2.1,-8 Q3.5,-12 0.5,-10 Q-0.5,-8 1,-6 Q8,-2 0,0"/>
        </g>
        <g id="twistedClosedLoop_above" stroke-linejoin="round">
            <path d="M-0.2,-0.5 Q-1,-8 -0.5,-15 M0.2,0 Q1,-8 0.5,-15" stroke-linecap="butt"
                stroke-dasharray="2 2"/>
            <path d="M0.5,0 Q8,6 0,8.5 Q2,3 -2,3.2 Q-4,5 0,8.5 Q-1,4 -0.2,0"/>
        </g>
        <g id="knotted">
            <path d="M0,0 L2,0" stroke-linecap="round"/>
            <ellipse rx="0.5" ry="0.8" cx="1.7" cy="0.5" transform="rotate(-22, 1.7,0.5)"/>
            <path d="M2,1 L4,1" stroke-linecap="round"/>
        </g>
        <g id="knotted_above" transform="rotate(-90, 0,0)">
            <use xlink:href="#knotted"/>
        </g>
        <g id="knotted_back">
            <use xlink:href="#knotted" clip-path="url(#knot_back_clip)"/>
        </g>
        <g id="frayed">
            <path d="M1.5,3 L-0.5,9" stroke-linecap="round"/>
            <path d="M1.5,3 L1.5,9" stroke-linecap="round"/>
            <path d="M1.5,3 Q1.5,1 3.8,1" stroke-linecap="round"/>
        </g>
        <g id="frayed2">
            <path d="M4,1 Q-1.1,3 -1.5,9"/>
            <path d="M4,1 Q-1.1,3 -1.5,9" transform="rotate(10, 4,1)"/>
        </g>
        <g id="frayed_back">
            <path d="M1,0 Q-1,4.5 -2,9"/>
            <path d="M1,0 Q0.5,4.5 0,9"/>
            <path d="M1,0 Q1.5,4.5 2,9"/>
            <path d="M1,0 Q3,4.5 4,9"/>
        </g>
        <g id="knottedDoubleLength">
            <path d="M-4.8,32 Q0.2,22 0.2,2" stroke="url(#fadingDown)"/>
            <path d="M5.2,32 Q5.2,22 0.2,2" stroke="url(#fadingDown)"/>
            <ellipse rx="1" ry="1.3" cx="0" cy="0" transform="rotate(-22, 1.7,0.5)" class="knot2"/>
        </g>
        <g id="knottedDoubleLength_front">
            <use xlink:href="#knottedDoubleLength"/>
        </g>
        <g id="knottedDoubleLength_above">
            <path d="M-0.8,4 Q0.1,2 0.2,1" stroke="url(#fadingDown)"/>
            <path d="M1,4 Q0.2,1 0.2,1" stroke="url(#fadingDown)"/>
            <ellipse rx="1" ry="1.1" cx="0" cy="0" transform="rotate(-45, 1.7,0.5)" class="knot2"/>
        </g>
        <g id="knottedSingleLength">
            <path d="M-0.8,6 Q0.2,2 0.2,2" stroke="url(#fadingDown)"/>
            <path d="M5.2,32 Q5.2,22 0.2,2" stroke="url(#fadingDown)"/>
            <ellipse rx="1" ry="1.3" cx="0" cy="0" transform="rotate(-22, 1.7,0.5)" class="knot2"/>
        </g>
        <g id="knottedSingleLength_front">
            <use xlink:href="#knottedSingleLength"/>
        </g>
        <g id="knottedSingleLength_above">
            <path d="M-0.8,2 Q0.1,2 0.2,1" stroke="url(#fadingDown)"/>
            <path d="M1,4 Q0.2,1 0.2,1" stroke="url(#fadingDown)"/>
            <ellipse rx="1" ry="1.1" cx="0" cy="0" transform="rotate(-45, 1.7,0.5)" class="knot2"/>
        </g>
        <g id="hitchedDoubleLength">
            <path d="M-4.8,32 Q0.2,22 0.2,2" stroke="url(#fadingDown)"/>
            <path d="M5.2,32 Q5.2,22 0.2,2" stroke="url(#fadingDown)"/>
            <path d="M0.2,2 Q2,0.3 0.2,-0.8 Q-0.8,-0.8 -0.8,-0.6" stroke="#333333"
                stroke-linecap="round"/>
            <path d="M-0.8,1.6 Q-0.8,2 1.3,2 M-0.8,1.9 Q-0.8,2.3 1.3,2.3" class="hitched"
                stroke-linecap="round"/>
        </g>
        <g id="hitchedDoubleLength_front">
            <path d="M-4.8,32 Q0.2,22 0.2,2" stroke="url(#fadingDown)"/>
            <path d="M5.2,32 Q5.2,22 0.2,2" stroke="url(#fadingDown)"/>
            <path
                d="M0.1,2 Q0.3,0.3 -0.2,-0.6 Q-0.8,-0.7 -0.8,-0.7 M0.5,2 Q0.3,0.3 0.8,-0.6 Q1.4,-0.7 1.4,-0.7"
                class="hitched" stroke-linecap="round"/>
            <path d="M-1.2,1.6 Q0,2.5 1.8,1.6 M-1.2,1.9 Q0,2.8 1.8,1.9" class="hitched"
                stroke-linecap="round"/>
        </g>
        <g id="hitchedDoubleLength_above">
            <path d="M-0.8,4 Q0.1,2 0.2,1" stroke="url(#fadingDown)"/>
            <path d="M1,4 Q0.2,1 0.2,1" stroke="url(#fadingDown)"/>
            <path d="M0.2,2 L-0.6,-0.2 M0,2.3 L-1,0.1 M0.2,2 L1.2,-0.2 M0.4,2.3 L1.6,0.1"
                class="hitched" stroke-linecap="round"/>
            <path d="M-1.2,1.8 Q0,2.7 1.8,1.8 M-1.2,2.1 Q0,3 1.8,2.1" class="hitched"
                stroke-linecap="round"/>
        </g>
        <g id="sewnSingleLength">
            <path d="M-0.8,1.8 Q4,9 2,12" stroke="url(#fadingDown)" stroke-linecap="round"/>
            <path d="M6,32 Q6,22 1.5,0 Q0.5,-2 -1.2,-0.7" stroke="url(#fadingDown)"
                stroke-linecap="round"/>
            <path d="M3.8,6 L1,7" class="line4"/>
        </g>
        <g id="sewnSingleLength_front">
            <path d="M0.1,32 L0,0" stroke="url(#fadingDown)" stroke-linecap="round"/>
            <path d="M-1,8 L1,8" class="line4"/>
        </g>
        <g id="sewnSingleLength_above">
            <path d="M-0.8,2 Q0.1,2 0.2,1" stroke="url(#fadingDown)"/>
            <path d="M1,4 Q0.2,1 0.2,1" stroke="url(#fadingDown)"/>
            <path d="M-0.3,0 L-0.3,2 M0.3,0 L0.3,2" class="line" stroke-linecap="round"/>
        </g>
        <g id="generic">
            <path d="M-0.8,1.8 Q4,9 2,12" stroke="url(#fadingDown)" stroke-linecap="round"/>
            <path d="M6,32 Q6,22 1.5,0 Q0.5,-2 -1.2,-0.7" stroke="url(#fadingDown)"
                stroke-linecap="round"/>
        </g>
        <g id="generic_front">
            <path d="M0.1,32 L0,0" stroke="url(#fadingDown)" stroke-linecap="round"/>
        </g>
        <g id="generic_above">
            <path d="M-0.8,2 Q0.1,2 0.2,1" stroke="url(#fadingDown)"/>
            <path d="M1,4 Q0.2,1 0.2,1" stroke="url(#fadingDown)"/>
            <path d="M-0.3,0 L-0.3,2 M0.3,0 L0.3,2" class="line" stroke-linecap="round"/>
        </g>
        <g id="plaitedGroup">
            <g id="plaitedFill_insetSimple" transform="translate(1, 0)" class="line5">
                <path d="M1,0 L2,1"/>
                <path d="M0,0 L2,2"/>
                <path d="M0,1 L2,3"/>
                <path d="M0,2 L1,3"/>
                <path d="M0,0 L2,2"/>
                <path d="M0,0 Q-0.25,0.5 0,1"/>
                <path d="M0,1 Q-0.25,1.5 0,2"/>
                <path d="M0,2 Q-0.25,2.5 0,3"/>
                <path d="M2,0 Q2.25,0.5 2,1"/>
                <path d="M2,1 Q2.25,1.5 2,2"/>
                <path d="M2,2 Q2.25,2.5 2,3"/>
            </g>
            <g id="plaitedFill_insetSimple_front" transform="translate(1, 0)" class="line5">
                <path d="M0,0 L2,1"/>
                <path d="M0,1 L2,2"/>
                <path d="M0,2 L2,3"/>
                <path d="M2,0 L1,0.5"/>
                <path d="M3,0.5 L1,1.5"/>
                <path d="M3,1.5 L1,2.5"/>
                <path d="M3,2.5 L2,3"/>
                <path d="M0,0 Q-0.5,0.5 0,1"/>
                <path d="M0,1 Q-0.5,1.5 0,2"/>
                <path d="M0,2 Q-0.5,2.5 0,3"/>
                <path d="M3,-0.5 Q3.5,0 3,0.5"/>
                <path d="M3,0.5 Q3.5,1 3,1.5"/>
                <path d="M3,1.5 Q3.5,2 3,2.5"/>
                <path d="M3,2.5 Q3.5,3 3,3.5"/>
            </g>
            <g id="plaitedFill_insetComplex" transform="translate(1, 0)" class="line5">
                <path d="M0,0 L2,0.5"/>
                <path d="M0,0.5 L2,1"/>
                <path d="M0,1 L2,1.5"/>
                <path d="M0,1.5 L2,2"/>
                <path d="M0,2 L2,2.5"/>
                <path d="M0,2.5 L2,3"/>
                <path d="M0,0 Q-0.25,0.25 0,0.5"/>
                <path d="M0,0.5 Q-0.25,0.75 0,1"/>
                <path d="M0,1 Q-0.25,1.25 0,1.5"/>
                <path d="M0,1.5 Q-0.25,1.75 0,2"/>
                <path d="M0,2 Q-0.25,2.25 0,2.5"/>
                <path d="M0,2.5 Q-0.25,2.75 0,3"/>
                <path d="M2,0 Q2.25,0.25 2,0.5"/>
                <path d="M2,0.5 Q2.25,0.75 2,1"/>
                <path d="M2,1 Q2.25,1.25 2,1.5"/>
                <path d="M2,1.5 Q2.25,1.75 2,2"/>
                <path d="M2,2 Q2.25,2.25 2,2.5"/>
                <path d="M2,2.5 Q2.25,2.75 2,3"/>
            </g>
            <g id="plaitedFill_insetComplex_front" transform="translate(1, 0)">
                <g class="line6">
                    <path d="M1.25,0 L2.25,0.25"/>
                    <path d="M0,0 L3,1"/>
                    <path d="M0,0.5 L2.25,1.25"/>
                    <path d="M0,1 L3,2"/>
                    <path d="M0,1.5 L2.25,2.25"/>
                    <path d="M0,2 L3,3"/>
                    <path d="M0,2.5 L2.25,3.25"/>
                    <path d="M0,3 L3,4"/>
                    <path d="M0,3.5 L2.25,4.25"/>
                    <path d="M0,4 L1.5,4.5"/>
                    <path d="M3,0 L1.5,0.5"/>
                    <path d="M4.5,0 L2.25,0.75"/>
                    <path d="M4.5,0.5 L1.5,1.5"/>
                    <path d="M4.5,1 L2.25,1.75"/>
                    <path d="M4.5,1.5 L1.5,2.5"/>
                    <path d="M4.5,2 L2.25,2.75"/>
                    <path d="M4.5,2.5 L1.5,3.5"/>
                    <path d="M4.5,3 L2.25,3.75"/>
                    <path d="M4.5,3.5 L1.5,4.5"/>
                    <path d="M4.5,4 L3,4.5"/>
                </g>
                <g  class="line5">
                    <path d="M0,0 Q-0.25,0.25 0,0.5"/>
                    <path d="M0,0.5 Q-0.25,0.75 0,1"/>
                    <path d="M0,1 Q-0.25,1.25 0,1.5"/>
                    <path d="M0,1.5 Q-0.25,1.75 0,2"/>
                    <path d="M0,2 Q-0.25,2.25 0,2.5"/>
                    <path d="M0,2.5 Q-0.25,2.75 0,3"/>
                    <path d="M0,3 Q-0.25,3.25 0,3.5"/>
                    <path d="M0,3.5 Q-0.25,3.75 0,4"/>
                    <path d="M0,4 Q-0.25,4.25 0,4.5"/>
                    <path d="M4.5,0 Q4.75,0.25 4.5,0.5"/>
                    <path d="M4.5,0.5 Q4.75,0.75 4.5,1"/>
                    <path d="M4.5,1 Q4.75,1.25 4.5,1.5"/>
                    <path d="M4.5,1.5 Q4.75,1.75 4.5,2"/>
                    <path d="M4.5,2 Q4.75,2.25 4.5,2.5"/>
                    <path d="M4.5,2.5 Q4.75,2.75 4.5,3"/>
                    <path d="M4.5,3 Q4.75,3.25 4.5,3.5"/>
                    <path d="M4.5,3.5 Q4.75,3.75 4.5,4"/>
                    <path d="M4.5,4 Q4.75,4.25 4.5,4.5"/>
                </g>
            </g>
            <!-- The x value of the pattern has to be equal to the x1 and x2 value of the line minus 0.8 -->
            <pattern id="plaitedFillSimple" x="-1" y="0" width="4.5" height="2"
                patternContentUnits="userSpaceOnUse" patternUnits="userSpaceOnUse"
                stroke-linecap="round">
                <use xlink:href="#plaitedFill_insetSimple"/>
            </pattern>
            <pattern id="plaitedFillSimple_front" x="-1" y="0" width="4.5" height="2"
                patternContentUnits="userSpaceOnUse" patternUnits="userSpaceOnUse"
                stroke-linecap="round">
                <use xlink:href="#plaitedFill_insetSimple_front"/>
            </pattern>
            <pattern id="plaitedFillComplex" x="-1" y="0" width="6" height="2"
                patternContentUnits="userSpaceOnUse" patternUnits="userSpaceOnUse"
                stroke-linecap="round">
                <use xlink:href="#plaitedFill_insetComplex"/>
            </pattern>
            <pattern id="plaitedFillComplex_front" x="-1" y="0" width="6" height="2"
                patternContentUnits="userSpaceOnUse" patternUnits="userSpaceOnUse"
                stroke-linecap="round">
                <use xlink:href="#plaitedFill_insetComplex_front"/>
            </pattern>
            <mask id="fadingMaskPlaited">
                <path d="M-1,0 L5,0 5,30 -1,30z" stroke-width="0.1" stroke="url(#fadingUp)"
                    fill="url(#fadingUp)"/>
            </mask>
            <g id="plaitedSectionSimple">
                <line x1="1.8" x2="1.8" y1="5.7" y2="32" class="filler" stroke-width="4.25"/>
                <line x1="1.8" x2="1.8" y1="5.7" y2="32" stroke="url(#plaitedFillSimple)"
                    stroke-width="4.25" mask="url(#fadingMaskPlaited)"/>
            </g>
            <g id="plaitedSectionSimple_front">
                <line x1="1.5" x2="1.5" y1="5.7" y2="32" class="filler" stroke-width="3.2"/>
                <line x1="1.8" x2="1.8" y1="5.7" y2="32" stroke="url(#plaitedFillSimple_front)"
                    stroke-width="4.25" mask="url(#fadingMaskPlaited)"/>
            </g>
            <g id="plaitedSectionComplex">
                <line x1="1.8" x2="1.8" y1="5.7" y2="32" class="filler" stroke-width="6"/>
                <line x1="1.8" x2="1.8" y1="5.7" y2="32" stroke="url(#plaitedFillComplex)"
                    stroke-width="6" mask="url(#fadingMaskPlaited)"/>
            </g>
            <g id="plaitedSectionComplex_front">
                <line x1="1.8" x2="1.8" y1="5.7" y2="32" class="filler" stroke-width="6"/>
                <line x1="1.8" x2="1.8" y1="5.7" y2="32" stroke="url(#plaitedFillComplex_front)"
                    stroke-width="6" mask="url(#fadingMaskPlaited)"/>
            </g>
            <g id="plaited">
                <use xlink:href="#plaitedSectionSimple" transform="translate(-0.4,0)"/>
                <path d="M-0.8,1.8 Q1,6 1.5,6" class="line" stroke-linecap="round"/>
                <path d="M0,6 Q0,6 1.5,0 Q0.5,-2 -1.2,-0.7" class="line" stroke-linecap="round"
                />
            </g>
            <g id="plaited_front">
                <use xlink:href="#plaitedSectionSimple_front" transform="translate(-0.8,0)"/>
                <g transform="translate(-0.4)">
                    <path d="M0.8,-0.7 Q1,6 1.5,6" class="line" stroke-linecap="round"/>
                    <path d="M0,6 Q0.6,5 0.6,-0.7" class="line" stroke-linecap="round"/>
                </g>
                <g transform="translate(0.4)">
                    <path d="M1.3,-0.7 Q1,6 1.5,6" class="line" stroke-linecap="round"/>
                    <path d="M0,6 Q0.6,5 0.6,-0.7" class="line" stroke-linecap="round"/>
                </g>
            </g>
            <g id="plaited_above">
                <!--<path d="M0.7,4 L0.7,1" stroke="url(#pliedFill)" stroke-width="3" transform="translate(-0.8)"/>-->
                <path d="M-1.3,0 L-1.3,2 M1.3,0 L1.3,2" class="line" stroke-linecap="round"/>
                <path d="M-0.3,0 L-0.3,2 M0.3,0 L0.3,2" class="line" stroke-linecap="round"/>
            </g>
        </g>
        <g id="pliedGroup">
            <g id="pliedFill_inset">
                <path d="M1.1,0 Q2,0.5 2.5,0.5" class="line2"/>
                <path d="M0,0 Q1.25,1.5 2.5,1.5" class="line2"/>
                <path d="M0,1 Q0.9,2 1.25,2" class="line2"/>
                <path d="M0,0 L0,2 M2.5,0 L2.5,2" class="line2"/>
            </g>
            <!-- The x value of the pattern has to be equal to the x1 and x2 value of the line minus 1.25 -->
            <pattern id="pliedFill" x="-0.55" y="0" width="2.5" height="2"
                patternUnits="userSpaceOnUse" stroke-linecap="round">
                <use xlink:href="#pliedFill_inset"/>
            </pattern>
            <mask id="fadingMaskPlied">
                <path d="M-0.5,0 L3,0 3,30 -0.5,30z" stroke-width="0.1" stroke="url(#fadingUp)"
                    fill="url(#fadingUp)"/>
            </mask>
            <g id="pliedSection">
                <line x1="0.7" x2="0.7" y1="5.7" y2="32" class="filler" stroke-width="2.5"/>
                <line x1="0.7" x2="0.7" y1="5.7" y2="32" stroke="url(#pliedFill)" stroke-width="2.5"
                    mask="url(#fadingMaskPlied)"/>
            </g>
            <g id="plied">
                <use xlink:href="#pliedSection"/>
                <path d="M-0.8,1.8 Q1,6 1.5,6" class="line" stroke-linecap="round"/>
                <path d="M0,6 Q0,6 1.5,0 Q0.5,-2 -1.2,-0.7" class="line" stroke-linecap="round"
                />
            </g>
            <g id="plied_front">
                <use xlink:href="#pliedSection"/>
                <path d="M0.8,-0.7 Q1,6 1.5,6" class="line" stroke-linecap="round"/>
                <path d="M0,6 Q0.6,5 0.6,-0.7" class="line" stroke-linecap="round"/>
            </g>
            <g id="plied_above">
                <!--<path d="M0.7,4 L0.7,1" stroke="url(#pliedFill)" stroke-width="3" transform="translate(-0.8)"/>-->
                <path d="M-1.3,0 L-1.3,2 M1.3,0 L1.3,2" class="line" stroke-linecap="round"/>
                <path d="M-0.3,0 L-0.3,2 M0.3,0 L0.3,2" class="line" stroke-linecap="round"/>
            </g>
        </g>
    </defs>

    <!-- Definitions are called here -->

    <!-- Span1 | multipleSpan | closedLoop -->
    <use xlink:href="#endbandCore" x="50" y="50" stroke="#000000" stroke-width="0.5"/>
    <use xlink:href="#crowningCore" x="48" y="40" stroke="#000000" stroke-width="0.5"/>
    <use xlink:href="#textblock" x="15" y="61" stroke="#000000" stroke-width="1" fill="none"/>
    <use xlink:href="#type1" x="46" y="59" stroke="#000000" stroke-width="1"/>
    <!--    <use xlink:href="#knot" x="42" y="58"  stroke="#000000" stroke-width="1"/>-->
    <use xlink:href="#frayed" x="42" y="58" stroke="#000000" stroke-width="1" fill="none"/>
    <!-- Secondary types -->
    <!--<use xlink:href="#knottedDoubleLength" x="64" y="58.5" stroke-width="1" stroke-opacity="0.9"
        fill="none"/>-->
    <!--<use xlink:href="#knottedSingleLength" x="64" y="58.5" stroke-width="1" stroke-opacity="0.9"
        fill="none"/>-->
    <use xlink:href="#hitchedDoubleLength" x="64" y="58.5" stroke-width="1" stroke-opacity="0.9"
        fill="none"/>
    <!--<use xlink:href="#sewnSingleLength" x="64" y="58.5" stroke-width="1" stroke-opacity="0.9"
        fill="none"/>-->
    <!--<use xlink:href="#plied" x="64" y="58.5" stroke-width="1" stroke-opacity="0.9" fill="none"/>-->
    <!--    <use xlink:href="#plaited" x="64" y="58.5" stroke-width="1" stroke-opacity="0.9" fill="none"/>-->

    <!-- Span2 -->
    <!--<use xlink:href="#endbandCore" x="50" y="50" stroke="#000000" stroke-width="0.5"/>
    <use xlink:href="#crowningCore" x="48" y="39" stroke="#000000" stroke-width="0.5"/>
    <use xlink:href="#textblock" x="15" y="59" stroke="#000000" stroke-width="1" fill="none"/>
    <use xlink:href="#type1" x="47" y="42" stroke="#000000" stroke-width="1"/>
<!-\-    <use xlink:href="#knot" x="43" y="41"  stroke="#000000" stroke-width="1"/>-\->
    <use xlink:href="#frayed2" x="43" y="41"  stroke="#000000" stroke-width="1" fill="none"/>
    <!-\- Secondary types -\->
    <!-\-<use xlink:href="#knottedDoubleLength" x="65" y="41.5" stroke-width="1" stroke-opacity="0.9"
        fill="none"/>-\->
    <!-\-<use xlink:href="#knottedSingleLength" x="65" y="41.5" stroke-width="1" stroke-opacity="0.9"
        fill="none"/>-\->
    <!-\-<use xlink:href="#hitchedDoubleLength" x="65" y="41.5" stroke-width="1" stroke-opacity="0.9"
        fill="none"/>-\->
    <!-\-<use xlink:href="#sewnSingleLength" x="65" y="41.5" stroke-width="1" stroke-opacity="0.9"
        fill="none"/>-\->
    <use xlink:href="#plied" x="65" y="41.5" stroke-width="1" stroke-opacity="0.9" fill="none"/>-->
    <!--    <use xlink:href="#plaited" x="65" y="41.5" stroke-width="1" stroke-opacity="0.9" fill="none"/>-->

    <!-- twistedSpan -->
    <!--<use xlink:href="#endbandCore" x="50" y="50" stroke="#000000" stroke-width="0.5"/>
    <use xlink:href="#crowningCore" x="48" y="40" stroke="#000000" stroke-width="0.5"/>
    <use xlink:href="#textblock" x="15" y="61" stroke="#000000" stroke-width="1" fill="none"/>
    <use xlink:href="#twistedSpan" x="46" y="59" stroke="#000000" stroke-width="1" fill="none"/>
<!-\-    <use xlink:href="#knot" x="42" y="58"  stroke="#000000" stroke-width="1"/>-\->
    <use xlink:href="#frayed" x="42" y="58"  stroke="#000000" stroke-width="1" fill="none"/>
    <!-\-Secondary types-\->
    <!-\-<use xlink:href="#knottedDoubleLength" x="63.5" y="56" stroke-width="1" stroke-opacity="0.9"
        fill="none"/>-\->
    <!-\-<use xlink:href="#knottedSingleLength" x="63.5" y="56" stroke-width="1" stroke-opacity="0.9"
        fill="none"/>-\->
    <!-\-<use xlink:href="#hitchedDoubleLength" x="63.5" y="56" stroke-width="1" stroke-opacity="0.9"
        fill="none"/>-\->
    <!-\-<use xlink:href="#sewnSingleLength" x="63.5" y="57.5" stroke-width="1" stroke-opacity="0.9"
        fill="none"/>-\->
    <use xlink:href="#plied" x="63.5" y="57.5" stroke-width="1" stroke-opacity="0.9" fill="none"/>-->
    <!--    <use xlink:href="#plaited" x="63.5" y="57.5" stroke-width="1" stroke-opacity="0.9" fill="none"/>-->

    <!-- twistedClosedLoop -->
    <!--<use xlink:href="#endbandCore" x="50" y="50" stroke="#000000" stroke-width="0.5"/>
    <use xlink:href="#crowningCore" x="48" y="40" stroke="#000000" stroke-width="0.5"/>
    <use xlink:href="#textblock" x="15" y="61" stroke="#000000" stroke-width="1" fill="none"/>
    <use xlink:href="#twistedClosedLoop" x="46" y="59" stroke="#000000" stroke-width="1" fill="none"/>
    <use xlink:href="#knot" x="42" y="58" stroke="#000000" stroke-width="1"/>
    <!-\-    <use xlink:href="#frayed" x="42" y="58"  stroke="#000000" stroke-width="1" fill="none"/>-\->
    <!-\-Secondary types-\->
    <!-\-<!-\- knottedDoubleLength: choose to which loop should the secondary type be attached -\->
    <use xlink:href="#knottedDoubleLength" x="63.5" y="56" stroke-width="1" stroke-opacity="0.9"
        fill="none"/>
    <!-\-<use xlink:href="#knottedDoubleLength" x="62" y="51" stroke-width="1" stroke-opacity="0.9"
        fill="none"/>-\->-\->
    <!-\-<!-\- knottedSingleLength: choose to which loop should the secondary type be attached -\->
    <use xlink:href="#knottedSingleLength" x="63.5" y="56" stroke-width="1" stroke-opacity="0.9"
        fill="none"/>
    <!-\-<use xlink:href="#knottedSingleLength" x="62" y="51" stroke-width="1" stroke-opacity="0.9"
        fill="none"/>-\->-\->
    <!-\- knottedSingleLength: choose to which loop should the secondary type be attached -\->
    <!-\-<use xlink:href="#hitchedDoubleLength" x="63.5" y="58" stroke-width="1" stroke-opacity="0.9"
        fill="none"/>
    <!-\-<use xlink:href="#hitchedDoubleLength" x="61" y="49.5" stroke-width="1" stroke-opacity="0.9"
        fill="none"/>-\->-\->
    <!-\-<use xlink:href="#sewnSingleLength" x="63.5" y="58" stroke-width="1" stroke-opacity="0.9"
        fill="none"/>
    <!-\-<use xlink:href="#sewnSingleLength" x="61" y="49.5" stroke-width="1" stroke-opacity="0.9"
        fill="none"/>-\->-\->
<!-\-    <use xlink:href="#plied" x="63.5" y="58" stroke-width="1" stroke-opacity="0.9" fill="none"/>-\->
    <use xlink:href="#plied" x="61" y="49.5" stroke-width="1" stroke-opacity="0.9" fill="none"/>-->
    <!--<use xlink:href="#plaited" x="63.5" y="58" stroke-width="1" stroke-opacity="0.9" fill="none"/>
    <use xlink:href="#plaited" x="61" y="49.5" stroke-width="1" stroke-opacity="0.9" fill="none"/>-->


    <!-- Front pattern -->
    <use xlink:href="#endbandCore_front" x="100" y="43" stroke="#000000" stroke-width="0.5"
        fill="none"/>
    <use xlink:href="#crowningCore_front" x="100" y="38" stroke="#000000" stroke-width="0.5"
        fill="none"/>
    <!-- Span1 -->
    <use xlink:href="#span_front" x="130" y="57" stroke="#000000" stroke-width="1" fill="none"/>
    <!-- Secondary types -->
    <!--<use xlink:href="#knottedDoubleLength_front" x="140" y="62" stroke-width="1" stroke-opacity="0.9"
        fill="none"/>-->
    <!--<use xlink:href="#knottedSingleLength_front" x="140" y="62" stroke-width="1" stroke-opacity="0.9"
        fill="none"/>-->
    <!--<use xlink:href="#hitchedDoubleLength_front" x="140" y="62" stroke-width="1" stroke-opacity="0.9"
        fill="none"/>-->
    <use xlink:href="#sewnSingleLength_front" x="140" y="62" stroke-width="1.5" stroke-opacity="0.9"
        fill="none"/>
    <!--<use xlink:href="#plaited_front" x="140" y="62" stroke-width="1" stroke-opacity="0.9"
        fill="none"/>-->
    <!-- Span2 -->
    <!--<use xlink:href="#span_front" x="130" y="42" stroke="#000000" stroke-width="1" fill="none"/>
    <!-\- Secondary types -\->
    <!-\-<use xlink:href="#knottedDoubleLength" x="140" y="47" stroke-width="1" stroke-opacity="0.9"
        fill="none"/>-\->
    <!-\-<use xlink:href="#knottedSingleLength" x="140" y="47" stroke-width="1" stroke-opacity="0.9"
        fill="none"/>-\->
    <!-\-<use xlink:href="#hitchedDoubleLength_front" x="140" y="47" stroke-width="1" stroke-opacity="0.9"
        fill="none"/>-\->
    <!-\-<use xlink:href="#sewnSingleLength_front" x="140" y="47" stroke-width="1" stroke-opacity="0.9"
        fill="none"/>-\-><!-\-
    <use xlink:href="#plied_front" x="140" y="47" stroke-width="1" stroke-opacity="0.9" fill="none"/>-\->
    <use xlink:href="#plaited_front" x="140" y="47" stroke-width="1" stroke-opacity="0.9"
        fill="none"/>-->
    <!-- Multiplespan -->
    <!--<use xlink:href="#span_front" x="110" y="57" stroke="#000000" stroke-width="1" fill="none"/>
    <use xlink:href="#span_front" x="150" y="57" stroke="#000000" stroke-width="1" fill="none"/>
    <!-\- Secondary types -\->
    <!-\-<!-\- knottedDoubleLength -\->
    <use xlink:href="#knottedDoubleLength" x="120" y="62" stroke-width="1" stroke-opacity="0.9"
        fill="none"/>
    <use xlink:href="#knottedDoubleLength" x="160" y="62" stroke-width="1" stroke-opacity="0.9"
        fill="none"/>-\->
    <!-\-<!-\- knottedDoubleLength -\->
    <use xlink:href="#knottedSingleLength" x="120" y="62" stroke-width="1" stroke-opacity="0.9"
        fill="none"/>
    <use xlink:href="#knottedSingleLength" x="160" y="62" stroke-width="1" stroke-opacity="0.9"
        fill="none"/>-\->
    <!-\-<!-\- hitchedDoubleLength -\->
    <use xlink:href="#hitchedDoubleLength_front" x="120" y="62" stroke-width="1" stroke-opacity="0.9"
        fill="none"/>
    <use xlink:href="#hitchedDoubleLength_front" x="160" y="62" stroke-width="1" stroke-opacity="0.9"
        fill="none"/>-\->
    <!-\-<!-\- sewnSingleLength -\->
    <use xlink:href="#sewnSingleLength_front" x="120" y="62" stroke-width="1" stroke-opacity="0.9"
        fill="none"/>
    <use xlink:href="#sewnSingleLength_front" x="160" y="62" stroke-width="1" stroke-opacity="0.9"
        fill="none"/>-\->
    <!-\-<!-\- plied -\->
    <use xlink:href="#plied_front" x="120" y="62" stroke-width="1" stroke-opacity="0.9" fill="none"/>
    <use xlink:href="#plied_front" x="160" y="62" stroke-width="1" stroke-opacity="0.9" fill="none"/>-\->
    <!-\- plaited -\->
    <use xlink:href="#plaited_front" x="120" y="62" stroke-width="1" stroke-opacity="0.9"
        fill="none"/>
    <use xlink:href="#plaited_front" x="160" y="62" stroke-width="1" stroke-opacity="0.9"
        fill="none"/>-->
    <!-- ClosedLoop -->
    <!--<use xlink:href="#closedLoop_front" x="140" y="57" stroke="#000000" stroke-width="1" fill="none"/>
    <!-\- Secondary types -\->
    <!-\-<use xlink:href="#knottedDoubleLength" x="140" y="60" stroke-width="1" stroke-opacity="0.9"
        fill="none"/>-\->
    <!-\-<use xlink:href="#knottedSingleLength" x="140" y="60" stroke-width="1" stroke-opacity="0.9"
        fill="none"/>-\->
    <!-\-<use xlink:href="#hitchedDoubleLength_front" x="140" y="60" stroke-width="1" stroke-opacity="0.9"
        fill="none"/>-\->
    <!-\-<use xlink:href="#sewnSingleLength_front" x="140" y="60" stroke-width="1" stroke-opacity="0.9"
        fill="none"/>-\->
<!-\-    <use xlink:href="#plied_front" x="140" y="60" stroke-width="1" stroke-opacity="0.9" fill="none"/>-\->
    <use xlink:href="#plaited_front" x="140" y="60" stroke-width="1" stroke-opacity="0.9"
        fill="none"/>-->
    <!-- TwistedSpan -->
    <!--<use xlink:href="#twistedSpan_front" x="140" y="57" stroke="#000000" stroke-width="1" fill="none"/>
    <!-\- Secondary types -\->
    <!-\-<use xlink:href="#knottedDoubleLength" x="136" y="52" stroke-width="1" stroke-opacity="0.9"
        fill="none"/>-\->
    <!-\-<use xlink:href="#knottedSingleLength" x="136" y="52" stroke-width="1" stroke-opacity="0.9"
        fill="none"/>-\->
    <!-\-<use xlink:href="#hitchedDoubleLength_front" x="136" y="52" stroke-width="1" stroke-opacity="0.9"
        fill="none"/>-\->
    <!-\-<use xlink:href="#sewnSingleLength_front" x="136" y="52" stroke-width="1" stroke-opacity="0.9"
        fill="none"/>-\->
<!-\-    <use xlink:href="#plied_front" x="136" y="52" stroke-width="1" stroke-opacity="0.9" fill="none"/>-\->
    <use xlink:href="#plaited_front" x="136" y="52" stroke-width="1" stroke-opacity="0.9"
        fill="none"/>-->
    <!-- TwistedClosedLoop -->
    <!--<use xlink:href="#twistedClosedLoop_front" x="140" y="57" stroke="#000000" stroke-width="1"
        fill="none"/>
    <!-\- Secondary types -\->
    <!-\-<!-\- knottedDoubleLength: choose to which loop should the secondary type be attached -\->
    <use xlink:href="#knottedDoubleLength" x="144" y="53" stroke-width="1" stroke-opacity="0.9"
        fill="none"/>
    <!-\-<use xlink:href="#knottedDoubleLength" x="143" y="47" stroke-width="1" stroke-opacity="0.9"
        fill="none"/>-\->-\->
    <!-\-<!-\- knottedSingleLength: choose to which loop should the secondary type be attached -\->
    <use xlink:href="#knottedSingleLength" x="144" y="53" stroke-width="1" stroke-opacity="0.9"
        fill="none"/>
    <!-\-<use xlink:href="#knottedSingleLength" x="143" y="47" stroke-width="1" stroke-opacity="0.9"
        fill="none"/>-\->-\->
    <!-\-<!-\- hitchedDoubleLength: choose to which loop should the secondary type be attached -\->
    <use xlink:href="#hitchedDoubleLength_front" x="142" y="55.5" stroke-width="1" stroke-opacity="0.9"
        fill="none" transform="rotate(-20, 142, 55.5)"/>
    <!-\-<use xlink:href="#hitchedDoubleLength_front" x="142" y="48" stroke-width="1" stroke-opacity="0.9"
        fill="none" transform="rotate(-40, 142, 48)"/>-\->-\->
    <!-\- sewnSingleLength: choose to which loop should the secondary type be attached -\->
    <!-\-<!-\-<use xlink:href="#sewnSingleLength_front" x="142" y="55.5" stroke-width="1" stroke-opacity="0.9"
        fill="none"/>-\->
    <use xlink:href="#sewnSingleLength_front" x="141.5" y="46" stroke-width="1" stroke-opacity="0.9"
        fill="none"/>-\->
    <!-\- plied: choose to which loop should the secondary type be attached -\->
    <!-\-    <use xlink:href="#plied_front" x="142" y="55.5" stroke-width="1" stroke-opacity="0.9" fill="none"/>-\->
    <!-\-<use xlink:href="#plied_front" x="141.5" y="46" stroke-width="1" stroke-opacity="0.9"
        fill="none"/>-\->
    <!-\- plaited: choose to which loop should the secondary type be attached -\->
    <use xlink:href="#plaited_front" x="142" y="55.5" stroke-width="1" stroke-opacity="0.9"
        fill="none"/>
    <!-\-<use xlink:href="#plaited_front" x="141.5" y="46" stroke-width="1" stroke-opacity="0.9"
        fill="none"/>-\->-->

    <!-- Back pattern -->
    <g transform="scale(-1, 1) translate(-400, 0)">
        <use xlink:href="#endbandCore_front" x="130" y="43" stroke="#000000" stroke-width="0.5"
            fill="none"/>
        <use xlink:href="#crowningCore_front" x="130" y="38" stroke="#000000" stroke-width="0.5"
            fill="none"/>
    </g>
    <!-- Span1 -->
    <use xlink:href="#knot_back" x="219" y="57" stroke="#000000" stroke-width="1"/>
    <use xlink:href="#knot_back" x="239" y="57" stroke="#000000" stroke-width="1"/>
    <!--<use xlink:href="#frayed_back" x="219" y="57" stroke="#000000" stroke-width="1"/>
    <use xlink:href="#frayed_back" x="239" y="57" stroke="#000000" stroke-width="1"/>-->
    <!-- Span2 -->
    <!--<use xlink:href="#knot_back" x="219" y="42" stroke="#000000" stroke-width="1"/>
    <use xlink:href="#knot_back" x="239" y="42" stroke="#000000" stroke-width="1"/>-->
    <!--<use xlink:href="#frayed_back" x="219" y="42" stroke="#000000" stroke-width="1"/>
    <use xlink:href="#frayed_back" x="239" y="42" stroke="#000000" stroke-width="1"/>-->
    <!-- Multiplespan -->
    <!--<use xlink:href="#multipleSpan_back" x="219" y="57" stroke="#000000" stroke-width="1" fill="none"/>-->
    <!--<use xlink:href="#knot_back" x="199" y="57" stroke="#000000" stroke-width="1"/>
    <use xlink:href="#knot_back" x="259" y="57" stroke="#000000" stroke-width="1"/>-->
    <!--<use xlink:href="#frayed_back" x="199" y="57" stroke="#000000" stroke-width="1"/>
    <use xlink:href="#frayed_back" x="259" y="57" stroke="#000000" stroke-width="1"/>-->
    <!-- closedLoop | twistedSpan | twistedClosedLoop-->
    <!--<use xlink:href="#knot_back" x="229.5" y="57" stroke="#000000" stroke-width="1"/>
    <use xlink:href="#knot_back" x="228.5" y="57" stroke="#000000" stroke-width="1"/>-->
    <!--    <use xlink:href="#frayed_back" x="229" y="57" stroke="#000000" stroke-width="1"/>-->



    <!-- Above pattern -->
    <svg y="20">
        <use xlink:href="#endbandCore_front" x="100" y="83" stroke="#000000" stroke-width="0.5"
            fill="none"/>
        <use xlink:href="#crowningCore_front" x="100" y="85" stroke="#000000" stroke-width="0.5"
            fill="none"/>
        <!-- Span1 -->
        <use xlink:href="#span_above" x="130" y="97" stroke="#000000" stroke-width="1" fill="none"/>
        <use xlink:href="#knot_above" x="130" y="82" stroke="#000000" stroke-width="1"/>
        <use xlink:href="#knot_above" x="150" y="82" stroke="#000000" stroke-width="1"/>
        <!-- Secondary types -->
        <!--<use xlink:href="#knottedDoubleLength_above" x="140" y="106" stroke-width="1" stroke-opacity="0.9"
            fill="none"/>-->
        <!--<use xlink:href="#knottedSingleLength_above" x="140" y="106" stroke-width="1" stroke-opacity="0.9"
            fill="none"/>-->
        <!--<use xlink:href="#hitchedDoubleLength_above" x="140" y="106" stroke-width="1" stroke-opacity="0.9"
            fill="none"/>-->
        <!-- sewnSingleLength | plied | plaited | plaited -->
        <use xlink:href="#plaited_above" x="140" y="106" stroke-width="1" stroke-opacity="0.9"
            fill="none"/>
        <!-- Span2 -->
        <!--<use xlink:href="#span_above" x="130" y="90" stroke="#000000" stroke-width="1" fill="none" clip-path="url(#span2_clip)"/>
    <use xlink:href="#knot_above" x="130" y="82" stroke="#000000" stroke-width="1"/>
    <use xlink:href="#knot_above" x="150" y="82" stroke="#000000" stroke-width="1"/>
        <!-\- Secondary types -\->
        <!-\-<use xlink:href="#knottedDoubleLength_above" x="140" y="99" stroke-width="1" stroke-opacity="0.9"
            fill="none"/>-\->
        <!-\-<use xlink:href="#knottedSingleLength_above" x="140" y="99" stroke-width="1" stroke-opacity="0.9"
            fill="none"/>-\->
        <!-\-<use xlink:href="#hitchedDoubleLength_above" x="140" y="99" stroke-width="1" stroke-opacity="0.9"
            fill="none"/>-\->
        <!-\- sewnSingleLength | plied | plaited -\->
        <use xlink:href="#sewnSingleLength_above" x="140" y="99" stroke-width="1" stroke-opacity="0.9"
            fill="none"/>-->
        <!-- MultipleSpan -->
        <!--<use xlink:href="#span_above" x="110" y="97" stroke="#000000" stroke-width="1" fill="none"/>
    <use xlink:href="#span_above" x="150" y="97" stroke="#000000" stroke-width="1" fill="none"/>
    <use xlink:href="#multipleSpan_back_above" x="130" y="83" stroke="#000000" stroke-width="1" fill="none"/>
    <use xlink:href="#knot_above" x="110" y="82" stroke="#000000" stroke-width="1"/>
    <use xlink:href="#knot_above" x="170" y="82" stroke="#000000" stroke-width="1"/>
        <!-\- Secondary types -\->
        <!-\-<!-\- knottedDoubleLength -\->
        <use xlink:href="#knottedDoubleLength_above" x="120" y="106" stroke-width="1" stroke-opacity="0.9"
            fill="none"/>
        <use xlink:href="#knottedDoubleLength_above" x="160" y="106" stroke-width="1" stroke-opacity="0.9"
            fill="none"/>-\->
        <!-\-<!-\- knottedDoubleLength -\->
        <use xlink:href="#knottedSingleLength_above" x="120" y="106" stroke-width="1" stroke-opacity="0.9"
            fill="none"/>
        <use xlink:href="#knottedSingleLength_above" x="160" y="106" stroke-width="1" stroke-opacity="0.9"
            fill="none"/>-\->
        <!-\-<!-\- knottedDoubleLength -\->
        <use xlink:href="#hitchedDoubleLength_above" x="120" y="106" stroke-width="1" stroke-opacity="0.9"
            fill="none"/>
        <use xlink:href="#hitchedDoubleLength_above" x="160" y="106" stroke-width="1" stroke-opacity="0.9"
            fill="none"/>-\->
        <!-\- sewnSingleLength | plied | plaited -\->
        <use xlink:href="#sewnSingleLength_above" x="120" y="106" stroke-width="1" stroke-opacity="0.9"
            fill="none"/>
        <use xlink:href="#sewnSingleLength_above" x="160" y="106" stroke-width="1" stroke-opacity="0.9"
            fill="none"/>-->
        <!-- ClosedLoop -->
        <!--<use xlink:href="#closedLoop_above" x="140" y="97" stroke="#000000" stroke-width="1" fill="none"/>
    <use xlink:href="#knot_above" x="139.5" y="82" stroke="#000000" stroke-width="1"/>
    <use xlink:href="#knot_above" x="140.5" y="82" stroke="#000000" stroke-width="1"/>
        <!-\- Secondary types -\->
        <!-\-<use xlink:href="#knottedDoubleLength_above" x="140" y="112" stroke-width="1" stroke-opacity="0.9"
            fill="none"/>-\->
        <!-\-<use xlink:href="#knottedSingleLength_above" x="140" y="112" stroke-width="1" stroke-opacity="0.9"
            fill="none"/>-\->
        <!-\-<use xlink:href="#hitchedDoubleLength_above" x="140" y="112" stroke-width="1" stroke-opacity="0.9"
            fill="none"/>-\->
        <!-\- sewnSingleLength | plied | plaited -\->
        <use xlink:href="#sewnSingleLength_above" x="140" y="112" stroke-width="1" stroke-opacity="0.9"
            fill="none"/>-->
        <!-- TwistedSpan -->
        <!--<use xlink:href="#twistedSpan_above" x="140" y="97" stroke="#000000" stroke-width="1" fill="none"/>
    <use xlink:href="#knot_above" x="139.5" y="82" stroke="#000000" stroke-width="1"/>
    <use xlink:href="#knot_above" x="140.5" y="82" stroke="#000000" stroke-width="1"/>
        <!-\- Secondary types -\->
        <!-\-<use xlink:href="#knottedDoubleLength_above" x="136" y="108" stroke-width="1" stroke-opacity="0.9"
            fill="none"/>-\->
        <!-\-<use xlink:href="#knottedSingleLength_above" x="136" y="108" stroke-width="1" stroke-opacity="0.9"
            fill="none"/>-\->
        <!-\-<use xlink:href="#hitchedDoubleLength_above" x="137.5" y="108" stroke-width="1" stroke-opacity="0.9"
            fill="none"/>-\->
        <!-\- sewnSingleLength | plied | plaited -\->
        <use xlink:href="#sewnSingleLength_above" x="137.5" y="108" stroke-width="1" stroke-opacity="0.9"
            fill="none"/>-->
        <!-- TwistedClosedLoop -->
        <!--<use xlink:href="#twistedClosedLoop_above" x="140" y="97" stroke="#000000" stroke-width="1"
            fill="none"/>
        <use xlink:href="#knot_above" x="139.5" y="82" stroke="#000000" stroke-width="1"/>
        <use xlink:href="#knot_above" x="140.5" y="82" stroke="#000000" stroke-width="1"/>
        <!-\- Secondary types -\->
        <!-\-<!-\- knottedDoubleLength: choose to which loop should the secondary type be attached -\->
        <use xlink:href="#knottedDoubleLength_above" x="144" y="101.5" stroke-width="1" stroke-opacity="0.9"
            fill="none"/>
        <!-\-<use xlink:href="#knottedDoubleLength_above" x="137" y="101.5" stroke-width="1" stroke-opacity="0.9"
            fill="none"/>-\->-\->
        <!-\- knottedSingleLength: choose to which loop should the secondary type be attached -\->
        <!-\-<use xlink:href="#knottedSingleLength_above" x="144" y="101.5" stroke-width="1" stroke-opacity="0.9"
            fill="none"/>
        <!-\-<use xlink:href="#knottedSingleLength_above" x="137" y="101.5" stroke-width="1" stroke-opacity="0.9"
            fill="none"/>-\->-\->
        <!-\- hitchedDoubleLength: choose to which loop should the secondary type be attached -\->
        <!-\-<!-\-<use xlink:href="#hitchedDoubleLength_above" x="142" y="103.5" stroke-width="1" stroke-opacity="0.9"
            fill="none" transform="rotate(-45, 142, 103.5)"/>-\->
        <use xlink:href="#hitchedDoubleLength_above" x="138" y="102.5" stroke-width="1" stroke-opacity="0.9"
            fill="none" transform="rotate(47, 138, 102.5)"/>-\->
        <!-\- sewnSingleLength | plied | plaited: choose to which loop should the secondary type be attached -\->
        <!-\-<use xlink:href="#sewnSingleLength_above" x="142" y="103.5" stroke-width="1" stroke-opacity="0.9"
            fill="none"/>-\->
        <use xlink:href="#sewnSingleLength_above" x="138" y="102.5" stroke-width="1"
            stroke-opacity="0.9" fill="none"/>-->
    </svg>

    <!-- NB: we need to set CSS classes for different materials with changes in stroke-width values: 1 for 'cord' and 'thread', 2 for 'ribbon' and 'textile.' -->

    <!-- REMEMBER THE GENERIC SHAPES -->


</svg>
